<svg width="151" height="46" viewBox="0 0 151 46" fill="none" xmlns="http://www.w3.org/2000/svg">
<path d="M55 38.8286V37.1145L59.2562 30.3073C59.5051 29.9155 59.754 29.5727 60.0277 29.2054C59.6046 29.2299 59.057 29.2299 57.8872 29.2299H55.1493V27.222H62.7656V29.0095L58.2606 35.9881C58.0863 36.2575 57.937 36.5269 57.713 36.7962C58.0117 36.7717 58.8081 36.7717 60.2766 36.7717H62.8403V38.8286H55ZM70.0583 38.8286C70.0583 38.4368 70.0832 37.7512 70.1579 37.3104L70.133 37.2859C69.6103 38.2899 68.6147 39 67.1711 39C65.2048 39 64.5826 37.7512 64.5826 36.2575V30.2828H66.7978V35.7433C66.7978 36.6493 67.0467 37.1635 67.8929 37.1635C69.0379 37.1635 69.909 35.8902 69.909 34.3965V30.2828H72.1491V38.8286H70.0583ZM79.2178 32.2662C77.5999 31.9479 76.8035 32.9763 76.8035 35.3515V38.8531H74.5634V30.2828H76.679C76.679 30.7235 76.6292 31.4092 76.5297 31.9968H76.5546C76.9777 30.9194 77.824 29.9645 79.3173 30.0869L79.2178 32.2662ZM82.0552 29.1809C81.2836 29.1809 80.6614 28.5687 80.6614 27.8341C80.6614 27.124 81.2836 26.5118 82.0552 26.5118C82.8268 26.5118 83.4491 27.0995 83.4491 27.8341C83.4739 28.5687 82.8268 29.1809 82.0552 29.1809ZM80.9352 38.8286V30.2828H83.1753V38.8286H80.9352ZM88.7257 38.9755C86.3114 38.9755 84.818 37.7267 84.818 34.8373C84.818 32.1682 86.2367 30.1359 89.3231 30.1359C89.9204 30.1359 90.5426 30.2338 91.1151 30.3807L90.8911 32.2907C90.4182 32.1193 89.8706 31.9724 89.3231 31.9724C87.9043 31.9724 87.1825 33.0008 87.1825 34.6169C87.1825 36.0861 87.755 37.0656 89.2484 37.0656C89.8457 37.0656 90.4929 36.9431 90.9658 36.6983L91.14 38.5837C90.5178 38.8041 89.6715 38.9755 88.7257 38.9755ZM98.1838 38.8286V33.3681C98.1838 32.4621 97.9349 31.9479 97.1136 31.9479C95.9686 31.9479 95.0975 33.2212 95.0975 34.7148V38.8531H92.8574V26.2915H95.0975V29.9645C95.0975 30.4787 95.0726 31.2133 94.9482 31.703L94.973 31.7275C95.4708 30.7725 96.4664 30.1359 97.8354 30.1359C99.8017 30.1359 100.424 31.3847 100.424 32.8784V38.8776C100.424 38.8286 98.1838 38.8286 98.1838 38.8286ZM103.884 30.7235C102.465 30.7235 102.116 29.9645 102.116 29.0829V26.2425H103.137V29.0095C103.137 29.5237 103.311 29.842 103.933 29.842C104.506 29.842 104.73 29.5972 104.73 28.936V26.218H105.75V28.887C105.775 30.1603 105.053 30.7235 103.884 30.7235ZM106.621 30.6501V29.8665L108.04 27.5158C108.115 27.3934 108.19 27.2954 108.289 27.173C108.165 27.173 108.015 27.1975 107.592 27.1975H106.671V26.2915H109.558V27.124L108.04 29.5237C107.99 29.5972 107.941 29.6706 107.866 29.7686C107.941 29.7441 108.19 29.7441 108.737 29.7441H109.583V30.6746L106.621 30.6501ZM113.167 30.6501V28.8136H111.55V30.6256H110.529V26.2425H111.55V27.9321H113.167V26.2425H114.188V30.6256H113.167V30.6501ZM60.0029 20.831C56.2694 20.831 55.448 18.8476 55.448 16.6193V9.02844H57.713V16.4724C57.713 17.9415 58.2108 18.97 60.1522 18.97C61.8945 18.97 62.6412 18.2354 62.6412 16.2765V9.02844H64.9061V16.1295C64.8813 19.3373 63.1141 20.831 60.0029 20.831ZM72.6469 20.6596V15.199C72.6469 14.293 72.398 13.7788 71.5766 13.7788C70.4317 13.7788 69.5605 15.0521 69.5605 16.5458V20.684H67.3205V12.1382H69.4361C69.4361 12.53 69.4112 13.2156 69.3116 13.6564L69.3365 13.6809C69.8592 12.6769 70.8797 11.9668 72.2984 11.9668C74.2647 11.9668 74.887 13.2156 74.887 14.7093V20.7085H72.6469V20.6596ZM78.4213 11.0118C77.6497 11.0118 77.0524 10.3997 77.0524 9.66508C77.0524 8.93049 77.6746 8.34281 78.4213 8.34281C79.1929 8.34281 79.8151 8.93049 79.8151 9.66508C79.8151 10.3997 79.1929 11.0118 78.4213 11.0118ZM77.3013 20.6596V12.1137H79.5414V20.6596H77.3013ZM86.2865 20.6596H84.0215L80.8107 12.1137H83.2499L84.6189 15.9581C84.818 16.5458 85.042 17.2314 85.1913 17.8436H85.2162C85.3656 17.2559 85.5398 16.5948 85.7389 16.0316L87.1327 12.1137H89.5222L86.2865 20.6596ZM97.5367 16.7172H92.1605C92.1356 18.3088 92.957 19.0924 94.5499 19.0924C95.3962 19.0924 96.342 18.8965 97.0887 18.5537L97.2878 20.2678C96.3669 20.6351 95.2468 20.8065 94.1766 20.8065C91.4138 20.8065 89.8706 19.4352 89.8706 16.4479C89.8706 13.8278 91.3391 11.8934 93.9526 11.8934C96.4913 11.8934 97.6114 13.6074 97.6114 15.7133C97.6114 16.0316 97.5865 16.3744 97.5367 16.7172ZM93.8779 13.534C92.957 13.534 92.3098 14.1951 92.1854 15.248H95.3962C95.4211 14.1706 94.8237 13.534 93.8779 13.534ZM104.132 14.0727C102.515 13.7543 101.718 14.7828 101.718 17.158V20.6596H99.4781V12.1137H101.594C101.594 12.5545 101.544 13.2401 101.444 13.8278H101.469C101.892 12.7504 102.739 11.7954 104.232 11.9179L104.132 14.0727ZM107.194 20.831C106.572 20.831 105.925 20.7575 105.377 20.684L105.427 18.872C105.974 19.019 106.621 19.1414 107.293 19.1414C108.14 19.1414 108.712 18.7986 108.712 18.2354C108.712 16.7172 105.203 17.5742 105.203 14.6848C105.203 13.1911 106.447 11.9423 108.886 11.9423C109.384 11.9423 109.957 12.0158 110.479 12.0893L110.405 13.8278C109.907 13.6809 109.334 13.6074 108.787 13.6074C107.916 13.6074 107.493 13.9502 107.493 14.4889C107.493 15.8847 111.052 15.2725 111.052 18.0395C111.077 19.6801 109.558 20.831 107.194 20.831ZM114.088 11.0118C113.317 11.0118 112.695 10.3997 112.695 9.66508C112.695 8.93049 113.317 8.34281 114.088 8.34281C114.86 8.34281 115.482 8.93049 115.482 9.66508C115.482 10.3997 114.86 11.0118 114.088 11.0118ZM112.968 20.6596V12.1137H115.208V20.6596H112.968ZM120.858 20.831C118.942 20.831 118.32 20.1453 118.32 18.1374V13.8033H116.826V12.0893H118.32V9.46919L120.56 8.88152V12.0893H122.675V13.8033H120.56V17.5498C120.56 18.6517 120.834 18.97 121.58 18.97C121.954 18.97 122.352 18.921 122.675 18.8231V20.5861C122.128 20.733 121.456 20.831 120.858 20.831ZM128.624 21.4431C127.604 24.1122 126.683 24.9202 124.691 24.9202C124.318 24.9202 123.845 24.8712 123.472 24.7733L123.621 22.8878C124.019 23.0103 124.393 23.0837 124.816 23.0837C125.563 23.0837 126.036 22.7654 126.484 21.4921L126.782 20.6596L123.571 12.1137H126.06L127.23 15.3705C127.504 16.1051 127.728 16.9621 127.902 17.7212H127.927C128.126 16.9376 128.475 15.8112 128.773 15.0032L129.794 12.0893H132.183L128.624 21.4431ZM139.376 20.831C136.912 20.831 135.319 19.5821 135.319 16.5213C135.319 13.8523 137.111 11.9179 139.75 11.9179C142.214 11.9179 143.807 13.2646 143.807 16.203C143.807 18.8965 141.99 20.831 139.376 20.831ZM139.6 13.7788C138.605 13.7788 137.634 14.5379 137.634 16.3009C137.634 18.064 138.281 18.9455 139.576 18.9455C140.671 18.9455 141.517 18.064 141.517 16.3254C141.492 14.6848 140.92 13.7788 139.6 13.7788ZM150.851 9.90995C150.502 9.78752 150.104 9.76304 149.756 9.76304C148.785 9.76304 148.337 10.2528 148.337 11.4036V12.1382H150.353V13.8523H148.337V20.7085H146.122V13.8523H144.603V12.1382H146.122V11.4526C146.122 9.12638 147.217 8 149.581 8C150.054 8 150.552 8.02449 151 8.14692L150.851 9.90995Z" fill="black"/>
<path d="M6.54052 31.23C6.04689 31.4505 5.94817 31.475 5.84944 31.524C5.75072 31.573 5.70136 31.6219 5.72604 31.7444C5.72604 31.7689 5.75072 31.8424 5.7754 31.8669C5.80008 31.8914 5.80008 31.9159 5.7754 31.9404C5.75072 31.9404 5.72604 31.9404 5.72604 31.8914C5.65199 31.7199 5.57795 31.4995 5.52859 31.4015C5.50391 31.328 5.40518 31.1321 5.35582 31.0096C5.33114 30.9606 5.33114 30.9361 5.35582 30.9361C5.3805 30.9361 5.40518 30.9361 5.40518 30.9851C5.42986 31.0096 5.42986 31.0341 5.45455 31.0831C5.50391 31.1566 5.57795 31.1565 5.70136 31.1321C5.80008 31.0831 5.89881 31.0586 6.41711 30.8381L6.88605 30.6422C7.355 30.4462 7.52777 30.2503 7.57713 30.0298C7.62649 29.8339 7.57713 29.6624 7.52777 29.5644C7.4784 29.4175 7.355 29.2705 7.15755 29.197C6.88605 29.099 6.58988 29.2215 6.24434 29.344L5.82476 29.5154C5.33114 29.7359 5.23241 29.7604 5.13369 29.8094C5.03496 29.8584 4.9856 29.9073 5.01028 30.0298C5.01028 30.0543 5.03496 30.1278 5.05965 30.1523C5.08433 30.1768 5.08433 30.2013 5.05965 30.2258C5.03496 30.2258 5.01028 30.2258 5.01028 30.1768C4.93624 30.0053 4.8622 29.8094 4.8622 29.8094C4.83752 29.7604 4.73879 29.5644 4.68943 29.442C4.66475 29.393 4.66475 29.3685 4.68943 29.3685C4.71411 29.3685 4.73879 29.3685 4.73879 29.4175C4.76347 29.442 4.76347 29.4665 4.78815 29.5154C4.83752 29.5889 4.91156 29.5889 5.03497 29.5644C5.13369 29.5154 5.23241 29.491 5.72604 29.2705L6.07157 29.1235C6.44179 28.9766 6.83669 28.8296 7.20691 29.0011C7.50309 29.148 7.65117 29.3685 7.7499 29.5889C7.82394 29.7604 7.94735 30.0788 7.84862 30.4217C7.77458 30.6422 7.57713 30.8871 7.10819 31.0831L6.54052 31.23ZM6.41711 27.5804C6.68861 27.5069 6.76265 27.4579 6.78733 27.3845C6.78733 27.311 6.78733 27.262 6.76265 27.1885C6.76265 27.1395 6.76265 27.1395 6.78733 27.115C6.81201 27.115 6.83669 27.1395 6.83669 27.1885C6.88606 27.4089 6.91074 27.5559 6.91074 27.6294C6.91074 27.6539 6.9601 27.8253 7.00946 27.9968C7.00946 28.0458 7.03414 28.0703 6.98478 28.0703C6.9601 28.0703 6.9601 28.0458 6.93542 28.0213C6.93542 27.9723 6.91074 27.9233 6.88605 27.8743C6.83669 27.8009 6.73797 27.8009 6.41711 27.8498L4.31921 28.2662C4.24517 28.2907 4.1958 28.2907 4.1958 28.2417C4.1958 28.1928 4.22048 28.1683 4.26985 28.0948C4.29453 28.0458 4.76347 27.3845 5.15837 26.7721C5.35582 26.4782 5.75072 25.8903 5.80008 25.8413V25.8168L4.22048 26.1842C3.99835 26.2332 3.94899 26.2822 3.92431 26.3802C3.92431 26.4292 3.92431 26.5272 3.94899 26.5761C3.94899 26.6251 3.94899 26.6251 3.92431 26.6251C3.89963 26.6251 3.87495 26.6006 3.87495 26.5517C3.82559 26.3802 3.80091 26.2087 3.80091 26.1353C3.80091 26.0863 3.75154 25.9638 3.70218 25.7923C3.70218 25.7433 3.6775 25.7189 3.72686 25.6944C3.75154 25.6944 3.75154 25.7188 3.77622 25.7433C3.77622 25.7678 3.80091 25.8168 3.80091 25.8413C3.85027 25.9393 3.92431 25.9393 4.12176 25.9148L6.34307 25.4739C6.41711 25.4494 6.46647 25.4739 6.46647 25.4984C6.46647 25.5474 6.44179 25.5964 6.41711 25.6454C6.24434 25.9148 5.89881 26.4537 5.60263 26.8946C5.30646 27.36 4.96092 27.8498 4.91156 27.9233L6.41711 27.5804ZM4.66475 24.3962C4.12176 24.4207 4.02304 24.4452 3.89963 24.4452C3.77622 24.4697 3.72686 24.4941 3.70218 24.5676C3.70218 24.6166 3.70218 24.6656 3.70218 24.6901C3.70218 24.7146 3.70218 24.7391 3.6775 24.7391C3.65282 24.7391 3.65282 24.7146 3.65282 24.6656C3.65282 24.5186 3.62814 24.2982 3.62814 24.2002C3.62814 24.1022 3.60346 23.9063 3.57877 23.7593C3.57877 23.7103 3.57877 23.6858 3.60345 23.6858C3.62814 23.6858 3.65282 23.7103 3.65282 23.7348C3.65282 23.7593 3.65282 23.8083 3.6775 23.8328C3.70218 23.9308 3.77622 23.9553 3.89963 23.9553C4.02304 23.9553 4.12176 23.9553 4.66475 23.9063L5.30646 23.8573C5.65199 23.8328 5.94817 23.8083 6.09626 23.7838C6.19498 23.7593 6.24434 23.7348 6.26903 23.6369C6.26903 23.5879 6.26903 23.5144 6.26903 23.4654C6.26903 23.4164 6.26902 23.4164 6.29371 23.4164C6.31839 23.4164 6.34307 23.4409 6.34307 23.4899C6.36775 23.7348 6.36775 23.9553 6.36775 24.0532C6.36775 24.1267 6.39243 24.3472 6.41711 24.4941C6.41711 24.5431 6.41711 24.5676 6.39243 24.5676C6.36775 24.5676 6.36775 24.5431 6.36775 24.5186C6.36775 24.4696 6.34307 24.4207 6.34307 24.3962C6.31839 24.3227 6.26903 24.2982 6.14562 24.2982C5.99753 24.2982 5.70136 24.2982 5.35582 24.3227L4.66475 24.3962ZM3.89963 22.804C3.70218 22.8775 3.65282 22.9265 3.60345 23.049C3.57877 23.098 3.57877 23.147 3.57877 23.196C3.57877 23.2204 3.55409 23.2449 3.55409 23.2449C3.52941 23.2449 3.52941 23.196 3.52941 23.147C3.55409 22.951 3.55409 22.7551 3.57877 22.6326C3.57877 22.5346 3.57877 22.3631 3.60345 22.1917C3.60345 22.1427 3.62814 22.1182 3.65282 22.1182C3.6775 22.1182 3.6775 22.1427 3.6775 22.1672C3.6775 22.2162 3.6775 22.2897 3.70218 22.3142C3.72686 22.3387 3.75154 22.3632 3.77622 22.3632C3.82559 22.3632 3.92431 22.3387 4.04772 22.2897L5.72604 21.7753V21.7508C5.33114 21.5793 4.22048 21.0405 3.97367 20.9425C3.92431 20.918 3.87495 20.8935 3.85027 20.8935C3.82559 20.8935 3.8009 20.8935 3.77622 20.9425C3.75154 20.9915 3.75154 21.0405 3.75154 21.0895C3.75154 21.1139 3.75154 21.1384 3.72686 21.1384C3.70218 21.1384 3.70218 21.114 3.70218 21.0405C3.72686 20.869 3.72686 20.722 3.72686 20.6731C3.72686 20.6241 3.72686 20.4526 3.72686 20.3301C3.72686 20.2812 3.75154 20.2567 3.77622 20.2567C3.8009 20.2567 3.80091 20.2812 3.80091 20.3056C3.80091 20.3301 3.8009 20.4036 3.82559 20.4771C3.85027 20.5261 3.92431 20.5751 4.14644 20.6976C4.4673 20.869 4.66475 20.967 5.08433 21.1874C5.60263 21.4569 5.97285 21.6528 6.14562 21.7263C6.34307 21.8243 6.39243 21.8488 6.39243 21.8978C6.39243 21.9468 6.34307 21.9712 6.1703 22.0202L3.89963 22.804ZM4.91156 19.6443C4.36857 19.5218 4.26985 19.4973 4.17112 19.4973C4.04772 19.4728 3.99835 19.4973 3.94899 19.5953C3.92431 19.6198 3.92431 19.6688 3.89963 19.7178C3.89963 19.7668 3.87495 19.7668 3.85027 19.7668C3.82559 19.7668 3.82559 19.7423 3.82559 19.6933C3.85027 19.5953 3.87495 19.4973 3.89963 19.4239C3.92431 19.3259 3.94899 19.2524 3.94899 19.2034C3.97367 19.0809 4.12176 18.3951 4.12176 18.3216C4.12176 18.2481 4.14644 18.1991 4.14644 18.1747C4.14644 18.1502 4.14644 18.1257 4.14644 18.1257C4.14644 18.1012 4.17112 18.1012 4.17112 18.1012C4.1958 18.1012 4.22048 18.1257 4.39325 18.1747C4.41793 18.1747 4.5907 18.2236 4.61538 18.2481C4.64007 18.2481 4.64007 18.2726 4.64007 18.2971C4.64007 18.3216 4.61538 18.3216 4.5907 18.3216C4.56602 18.3216 4.51666 18.2971 4.4673 18.3216C4.39325 18.3216 4.34389 18.3706 4.29453 18.5176C4.26985 18.5666 4.1958 18.934 4.17112 19.0075C4.17112 19.0319 4.17112 19.0319 4.1958 19.0319L5.08433 19.2279C5.10901 19.2279 5.13369 19.2279 5.13369 19.2034C5.15837 19.1299 5.23241 18.7135 5.2571 18.64C5.2571 18.5666 5.28178 18.4931 5.23241 18.4686C5.20773 18.4441 5.18305 18.4196 5.20773 18.3951C5.20773 18.3706 5.23241 18.3706 5.23241 18.3706C5.2571 18.3706 5.30646 18.3951 5.47923 18.4441C5.55327 18.4686 5.67668 18.4931 5.70136 18.5176C5.72604 18.5176 5.7754 18.5421 5.75072 18.5666C5.75072 18.5911 5.72604 18.5911 5.70136 18.5911C5.67668 18.5911 5.62731 18.5666 5.57795 18.5666C5.50391 18.5666 5.42986 18.6156 5.40518 18.738C5.3805 18.8115 5.30646 19.1544 5.28178 19.2279C5.28178 19.2524 5.28178 19.2524 5.30646 19.2524L5.57795 19.3014C5.70136 19.3259 6.02221 19.3994 6.12094 19.4239C6.36775 19.4728 6.44179 19.4239 6.51584 19.0564C6.54052 18.9585 6.5652 18.8115 6.54052 18.7135C6.51584 18.6156 6.44179 18.5666 6.31839 18.4931C6.29371 18.4686 6.26903 18.4686 6.26903 18.4441C6.26903 18.4196 6.29371 18.4196 6.34307 18.4196C6.41711 18.4441 6.66392 18.5176 6.71329 18.5421C6.78733 18.5911 6.78733 18.6156 6.76265 18.738C6.71329 19.0075 6.66392 19.1789 6.61456 19.3504C6.5652 19.4973 6.54052 19.6198 6.51584 19.7178C6.51584 19.7668 6.49116 19.8403 6.46647 19.9137C6.44179 19.9872 6.44179 20.0852 6.41711 20.1587C6.41711 20.2077 6.39243 20.2322 6.36775 20.2322C6.34307 20.2322 6.34307 20.2077 6.34307 20.1587C6.34307 20.1097 6.36775 20.0607 6.36775 20.0362C6.36775 19.9627 6.29371 19.9382 6.19498 19.8892C6.04689 19.8403 5.7754 19.7913 5.45455 19.7178L4.91156 19.6443ZM5.60263 17.0724C5.08433 16.8765 5.01028 16.852 4.88688 16.803C4.76347 16.754 4.71411 16.7785 4.64007 16.8765C4.61538 16.901 4.5907 16.9499 4.5907 16.9989C4.56602 17.0234 4.56602 17.0479 4.54134 17.0479C4.51666 17.0479 4.51666 17.0234 4.54134 16.9499C4.61538 16.7785 4.71411 16.558 4.73879 16.5091C4.78815 16.3866 4.8622 16.1416 4.91156 16.0437C4.9856 15.8232 5.10901 15.6273 5.28178 15.4803C5.3805 15.4068 5.60263 15.3333 5.82476 15.4313C6.07157 15.5293 6.26902 15.7252 6.41711 16.1661C6.91074 16.0192 7.30564 15.8967 7.57713 15.7742C7.84862 15.6518 7.92267 15.5293 7.94735 15.4803C7.97203 15.4558 7.97203 15.4068 7.99671 15.3823C8.02139 15.3578 8.02139 15.3578 8.04607 15.3578C8.07075 15.3578 8.07075 15.3823 8.04607 15.4313L7.92266 15.7497C7.84862 15.9457 7.79926 16.0192 7.72522 16.0927C7.60181 16.2151 7.37968 16.2641 7.05882 16.3621C6.81201 16.4356 6.54052 16.4846 6.46647 16.5091C6.44179 16.5091 6.41711 16.5335 6.41711 16.558L6.29371 16.852C6.29371 16.8765 6.29371 16.8765 6.31839 16.901L6.36775 16.9255C6.6886 17.0479 6.93542 17.1459 7.0835 17.1949C7.18223 17.2194 7.25627 17.2194 7.30563 17.1459C7.33032 17.0969 7.355 17.0234 7.37968 16.9989C7.37968 16.9744 7.40436 16.9744 7.42904 16.9744C7.45372 16.9744 7.45372 16.9989 7.42904 17.0479C7.355 17.2439 7.25627 17.4888 7.23159 17.5378C7.20691 17.6113 7.13287 17.8072 7.0835 17.9542C7.05882 18.0032 7.05882 18.0032 7.03414 18.0032C7.00946 18.0032 7.00946 17.9787 7.03414 17.9297C7.05882 17.8807 7.05882 17.8317 7.05882 17.8072C7.0835 17.7338 7.00946 17.6848 6.91074 17.6358C6.78733 17.5623 6.51584 17.4643 6.19498 17.3419L5.60263 17.0724ZM5.99753 16.7785C6.02221 16.803 6.04689 16.803 6.07157 16.7785C6.12094 16.7295 6.1703 16.6315 6.19498 16.5336C6.24434 16.4111 6.24434 16.3621 6.21966 16.2641C6.19498 16.1416 6.07158 15.9702 5.80008 15.8722C5.33114 15.7007 5.05965 15.9457 4.9856 16.1416C4.96092 16.2151 4.93624 16.2886 4.93624 16.3131C4.93624 16.3376 4.93624 16.3621 4.96092 16.3621L5.99753 16.7785ZM8.12012 15.2843C8.07075 15.3088 8.04607 15.3333 7.97203 15.2843C7.79926 15.1864 7.62649 15.0639 7.57713 15.0394C7.52777 15.0149 7.50309 14.9904 7.52777 14.9659C7.55245 14.9414 7.57713 14.9414 7.60181 14.9659C7.65117 14.9904 7.72522 15.0149 7.77458 15.0149C8.04607 15.0639 8.24352 14.9414 8.34225 14.7455C8.49033 14.476 8.39161 14.2311 8.21884 14.1331C8.07075 14.0351 7.89798 14.0107 7.55245 14.1576L7.355 14.2311C6.88605 14.427 6.61456 14.4271 6.34307 14.2801C5.99753 14.0841 5.92349 13.6677 6.1703 13.2268C6.29371 13.0309 6.39243 12.9084 6.46647 12.8349C6.49116 12.8104 6.51584 12.8104 6.54052 12.8104C6.58988 12.8349 6.66392 12.9084 6.91074 13.0309C6.98478 13.0799 7.00946 13.1044 6.98478 13.1289C6.9601 13.1534 6.9601 13.1534 6.91074 13.1289C6.88605 13.1044 6.78733 13.0799 6.66392 13.1044C6.5652 13.1289 6.44179 13.1534 6.31839 13.3493C6.19498 13.5698 6.24434 13.7902 6.41711 13.8882C6.5652 13.9617 6.71329 13.9617 7.05882 13.8147L7.18223 13.7657C7.67585 13.5453 7.97203 13.5453 8.2682 13.7167C8.44097 13.8147 8.63842 14.0107 8.63842 14.3046C8.63842 14.525 8.58906 14.6965 8.49033 14.8679C8.36693 15.0639 8.2682 15.1864 8.12012 15.2843ZM8.04607 12.345C7.60181 12.0266 7.52777 11.9776 7.42904 11.9042C7.33032 11.8307 7.25627 11.8307 7.18223 11.8797C7.15755 11.9042 7.13287 11.9286 7.0835 11.9776C7.05882 12.0021 7.03414 12.0266 7.00946 12.0021C6.98478 11.9776 7.00946 11.9531 7.03414 11.9042C7.10819 11.8062 7.25627 11.6102 7.33032 11.5367C7.37968 11.4633 7.50308 11.2918 7.57713 11.1693C7.60181 11.1203 7.62649 11.1203 7.65117 11.1203C7.67585 11.1448 7.67585 11.1693 7.65117 11.1938C7.62649 11.2183 7.62649 11.2428 7.60181 11.2918C7.55245 11.3898 7.60181 11.4388 7.70053 11.5123C7.79926 11.5857 7.8733 11.6347 8.31756 11.9531L8.83587 12.3206C9.10736 12.5165 9.35418 12.688 9.47758 12.7614C9.55162 12.8104 9.62567 12.8349 9.69971 12.737C9.72439 12.7125 9.79844 12.639 9.82312 12.59C9.8478 12.5655 9.87248 12.541 9.87248 12.5655C9.89716 12.59 9.89716 12.6145 9.87248 12.639C9.72439 12.8349 9.60099 13.0064 9.52694 13.0799C9.47758 13.1534 9.35417 13.3248 9.28013 13.4473C9.25545 13.4963 9.23077 13.4963 9.20609 13.4963C9.18141 13.4963 9.18141 13.4718 9.20609 13.4228C9.23077 13.3738 9.25545 13.3493 9.28013 13.3003C9.30481 13.2268 9.28013 13.1779 9.20609 13.1044C9.08268 13.0064 8.86055 12.8349 8.58906 12.639L8.04607 12.345ZM8.93459 9.92013L8.56438 10.312C8.41629 10.459 8.39161 10.5325 8.39161 10.6305C8.41629 10.7039 8.41629 10.7284 8.44097 10.7529C8.46565 10.7774 8.46565 10.8019 8.44097 10.8019C8.41629 10.8264 8.41629 10.8019 8.36693 10.7774C8.31756 10.7284 8.1448 10.459 8.12012 10.4345C8.09543 10.3855 8.09543 10.361 8.09543 10.361C8.12011 10.3365 8.16948 10.3365 8.24352 10.2875C8.31756 10.2141 8.41629 10.1161 8.51501 10.0426L9.50226 9.01385C9.57631 8.94036 9.62567 8.86688 9.65035 8.81789C9.67503 8.76891 9.69971 8.74441 9.69971 8.74441C9.72439 8.71991 9.72439 8.74441 9.77376 8.7689C9.82312 8.81789 9.99589 8.98935 10.0699 9.06284C10.0946 9.08733 10.0946 9.11182 10.0946 9.13632C10.0699 9.16081 10.0452 9.16081 10.0206 9.11182L9.99589 9.08733C9.92184 9.03834 9.77376 9.03834 9.55162 9.25879L9.23077 9.57721L10.2921 10.5815C10.5389 10.8019 10.7363 10.9979 10.8597 11.0958C10.9338 11.1448 11.0078 11.1938 11.1065 11.1203C11.1559 11.0958 11.2053 11.0469 11.2546 10.9979C11.2793 10.9734 11.304 10.9734 11.304 10.9734C11.3287 10.9979 11.304 11.0224 11.2793 11.0469C11.1065 11.2183 10.9585 11.3653 10.8844 11.4388C10.835 11.4878 10.687 11.6592 10.5882 11.7817C10.5636 11.8062 10.5389 11.8307 10.5142 11.8062C10.4895 11.7817 10.4895 11.7817 10.5389 11.7572C10.5882 11.7082 10.5882 11.6837 10.6129 11.6592C10.6623 11.5857 10.6129 11.5367 10.5389 11.4388C10.4401 11.3163 10.2427 11.1203 9.99589 10.8999L8.93459 9.92013ZM11.6742 9.50373C11.6495 9.50373 11.6495 9.52822 11.6742 9.55272L11.847 10.0671C11.8717 10.1651 11.921 10.2386 11.9457 10.263C11.9951 10.312 12.0444 10.3365 12.1185 10.263L12.1678 10.2386C12.1925 10.2141 12.2172 10.2141 12.2172 10.2386C12.2419 10.263 12.2172 10.2875 12.1925 10.312C12.0938 10.3855 11.9704 10.459 11.8963 10.5325C11.8717 10.557 11.7236 10.6794 11.5755 10.8019C11.5508 10.8264 11.5261 10.8509 11.5014 10.8264C11.4768 10.8019 11.5014 10.8019 11.5261 10.7774C11.5508 10.7529 11.5755 10.7284 11.6002 10.7039C11.7236 10.5815 11.6989 10.459 11.6495 10.263L10.9585 7.9606C10.9338 7.86262 10.9091 7.81363 10.9585 7.78914C10.9831 7.76464 11.0078 7.78914 11.1065 7.81363C11.304 7.91161 12.6615 8.69542 13.1798 8.98935C13.5006 9.16081 13.5993 9.13631 13.6734 9.08733C13.7227 9.06283 13.7721 9.03834 13.7968 9.01385C13.8215 8.98935 13.8462 8.98935 13.8462 9.01385C13.8708 9.03834 13.8462 9.06283 13.7474 9.13632C13.6487 9.2098 13.4513 9.38126 13.2044 9.55272C13.1551 9.60171 13.1057 9.6262 13.1057 9.6017C13.081 9.57721 13.1057 9.57721 13.1304 9.55272C13.1551 9.52822 13.1551 9.47923 13.1057 9.47923L12.4146 9.06284C12.39 9.06284 12.39 9.06284 12.3653 9.06284L11.6742 9.50373ZM12.1185 8.89137C12.1432 8.89137 12.1185 8.86688 12.1185 8.86688L11.304 8.377L11.2793 8.3525C11.2793 8.3525 11.2793 8.377 11.2793 8.40149L11.5755 9.28328C11.5755 9.30778 11.6002 9.30778 11.6002 9.28328L12.1185 8.89137ZM13.9942 8.86688C13.9449 8.86688 13.9202 8.86688 13.8708 8.7934C13.7721 8.62194 13.6734 8.42598 13.6487 8.377C13.624 8.32801 13.624 8.27902 13.6487 8.27902C13.6734 8.25453 13.6981 8.27902 13.6981 8.30352C13.7227 8.3525 13.7721 8.4015 13.8215 8.45048C14.0189 8.64644 14.2657 8.62194 14.4385 8.49947C14.71 8.32801 14.7347 8.05857 14.636 7.91161C14.5372 7.76464 14.4138 7.64218 14.0436 7.59319L13.8462 7.56869C13.3525 7.49521 13.1057 7.34825 12.9576 7.10331C12.7602 6.76039 12.9083 6.36848 13.3278 6.09904C13.5253 5.97657 13.6734 5.92758 13.7721 5.90309C13.7968 5.90309 13.8215 5.90309 13.8462 5.92758C13.8708 5.97657 13.9202 6.07455 14.0436 6.29499C14.093 6.36848 14.093 6.39297 14.0683 6.41746C14.0436 6.44196 14.0189 6.41747 13.9942 6.36848C13.9696 6.34398 13.8955 6.24601 13.7968 6.22151C13.7227 6.19702 13.5747 6.14803 13.3772 6.2705C13.1551 6.41747 13.081 6.61342 13.2044 6.80937C13.2785 6.95634 13.4266 7.00533 13.7968 7.05431L13.9202 7.07881C14.4632 7.1278 14.71 7.27476 14.9074 7.56869C15.0062 7.74015 15.0802 8.00959 14.9321 8.27902C14.8334 8.47497 14.6853 8.59745 14.5125 8.69542C14.3151 8.7934 14.167 8.86688 13.9942 8.86688ZM32.7766 6.2705L32.3077 6.00106C32.1349 5.90309 32.0362 5.8786 31.9622 5.90309C31.9128 5.92758 31.8634 5.95208 31.8387 5.97657C31.8141 6.00107 31.7894 6.00106 31.7894 6.00106C31.7647 5.97657 31.7647 5.97657 31.7894 5.92758C31.8141 5.87859 32.0362 5.63366 32.0609 5.60916C32.0856 5.58467 32.1102 5.56017 32.1349 5.58467C32.1596 5.60916 32.1843 5.65815 32.2337 5.70714C32.3077 5.75612 32.4311 5.8541 32.5298 5.90309L33.7639 6.61342C33.8626 6.66241 33.9366 6.7114 33.986 6.7114C34.0354 6.73589 34.0601 6.73589 34.0847 6.73589C34.1094 6.76038 34.1094 6.76038 34.0601 6.80937C34.0107 6.88285 33.8873 7.07881 33.8379 7.15229C33.8132 7.17678 33.7886 7.20128 33.7886 7.17678C33.7639 7.15229 33.7639 7.15229 33.7886 7.10331L33.8132 7.07881C33.8626 7.00533 33.8132 6.85836 33.5417 6.6869L33.1469 6.44196L32.4064 7.71566C32.2336 8.00959 32.0856 8.25453 32.0362 8.377C31.9868 8.47497 31.9622 8.54846 32.0609 8.62194C32.1102 8.64643 32.1596 8.69542 32.209 8.71991C32.2336 8.74441 32.2583 8.7689 32.2337 8.7689C32.209 8.7934 32.1843 8.7934 32.1596 8.7689C31.9622 8.64643 31.7647 8.52396 31.6907 8.47497C31.6166 8.42598 31.4192 8.32801 31.2958 8.25453C31.2464 8.23003 31.2464 8.20554 31.2464 8.18105C31.2464 8.15655 31.2711 8.15655 31.3204 8.18105C31.3698 8.20554 31.4192 8.23003 31.4438 8.23003C31.5179 8.25452 31.5673 8.20554 31.6413 8.10756C31.74 7.98509 31.8881 7.74015 32.0362 7.47072L32.7766 6.2705ZM34.4056 8.30352C34.7511 7.88712 34.8252 7.81364 34.8992 7.71566C34.9733 7.61768 34.9979 7.56869 34.9239 7.47072C34.8992 7.44622 34.8745 7.39723 34.8252 7.37273C34.8005 7.34824 34.7758 7.32375 34.8005 7.29926C34.8252 7.27476 34.8499 7.29926 34.8745 7.32375C35.0226 7.44622 35.1954 7.59319 35.2694 7.66667C35.3435 7.71566 35.5162 7.86262 35.615 7.9361C35.6643 7.9606 35.6643 7.98509 35.6643 8.00958C35.6397 8.03408 35.615 8.00958 35.5903 7.98509C35.5656 7.96059 35.5409 7.9361 35.4916 7.9361C35.4175 7.88712 35.3435 7.91161 35.2694 8.00958C35.1954 8.08307 35.1213 8.15655 34.7758 8.57295L34.455 8.94037C34.1094 9.33227 34.0601 9.57721 34.0847 9.79766C34.1094 9.99361 34.2328 10.1161 34.3316 10.1896C34.455 10.2875 34.6277 10.3855 34.8252 10.361C35.0967 10.3365 35.3188 10.0916 35.5656 9.82215L35.8618 9.47923C36.2073 9.06283 36.2814 8.98935 36.3554 8.89137C36.4295 8.7934 36.4541 8.71992 36.3801 8.64643C36.3554 8.62194 36.3307 8.57295 36.2814 8.54846C36.2567 8.52396 36.232 8.49946 36.2567 8.47497C36.2814 8.45048 36.306 8.47497 36.3307 8.49947C36.4788 8.62194 36.6269 8.7689 36.6269 8.7689C36.6516 8.7934 36.849 8.94036 36.9478 9.01385C36.9971 9.03834 36.9971 9.06283 36.9724 9.08733C36.9478 9.11182 36.9478 9.08733 36.8984 9.06284C36.8737 9.03834 36.849 9.01385 36.8243 9.01385C36.7256 8.96486 36.6763 8.98935 36.5775 9.08733C36.5035 9.16081 36.4294 9.23429 36.0839 9.65069L35.8371 9.94462C35.5656 10.2385 35.2694 10.5325 34.8745 10.5325C34.529 10.5325 34.3069 10.3855 34.1341 10.2386C33.986 10.1161 33.7392 9.87114 33.6898 9.52822C33.6652 9.28328 33.7392 8.98935 34.0601 8.59744L34.4056 8.30352ZM37.1452 10.8509C37.5648 10.508 37.6388 10.459 37.7376 10.361C37.8363 10.2875 37.861 10.2141 37.8116 10.1161C37.7869 10.0916 37.7622 10.0426 37.7376 9.99361C37.7129 9.96912 37.7129 9.94463 37.7129 9.92013C37.7376 9.89564 37.7622 9.92013 37.7869 9.96912C37.9103 10.1161 38.0337 10.2875 38.0831 10.361C38.1571 10.459 38.3299 10.655 38.4039 10.7529C38.552 10.9244 38.6754 11.1203 38.7001 11.3653C38.7001 11.4878 38.6508 11.7082 38.478 11.8552C38.2805 12.0266 38.0091 12.0756 37.5401 11.9776C37.4167 12.4675 37.3427 12.8594 37.2933 13.1778C37.2686 13.4718 37.318 13.5942 37.3427 13.6432C37.3673 13.6677 37.3673 13.6922 37.392 13.7167C37.4167 13.7412 37.4167 13.7657 37.392 13.7657C37.3673 13.7902 37.3427 13.7657 37.318 13.7412L37.0958 13.4718C36.9724 13.3248 36.9231 13.2268 36.8984 13.1289C36.8737 12.9574 36.9231 12.737 36.9971 12.4185C37.0712 12.1736 37.1452 11.9042 37.1699 11.8307C37.1699 11.8062 37.1699 11.7817 37.1452 11.7572L36.9478 11.5123C36.9231 11.4878 36.9231 11.4878 36.8984 11.5123L36.849 11.5367C36.5775 11.7572 36.3554 11.9286 36.2567 12.0266C36.1826 12.1001 36.1333 12.1736 36.1826 12.2471C36.2073 12.2961 36.2567 12.3695 36.2814 12.394C36.306 12.4185 36.306 12.443 36.2814 12.443C36.2567 12.4675 36.232 12.443 36.2073 12.4185C36.0839 12.2471 35.9111 12.0511 35.8865 12.0021C35.8371 11.9531 35.689 11.7817 35.615 11.6592C35.5903 11.6347 35.5903 11.5857 35.5903 11.5857C35.615 11.5857 35.615 11.5857 35.6397 11.6102C35.6643 11.6592 35.7137 11.6837 35.7384 11.7082C35.7877 11.7572 35.8618 11.7082 35.9605 11.6592C36.0839 11.5857 36.306 11.3898 36.5775 11.1938L37.1452 10.8509ZM37.1699 11.3653C37.1452 11.3898 37.1452 11.4143 37.1452 11.4388C37.1699 11.5122 37.2439 11.6102 37.2933 11.6837C37.392 11.8062 37.4167 11.8307 37.4907 11.8552C37.6141 11.8797 37.8116 11.8797 38.0337 11.6837C38.4286 11.3653 38.3299 11.0224 38.2065 10.8509C38.1571 10.7774 38.1078 10.7284 38.0831 10.7039C38.0584 10.6794 38.0584 10.7039 38.0337 10.7039L37.1699 11.3653ZM39.0457 13.4718C39.5146 13.2023 39.6133 13.1534 39.6874 13.0799C39.7861 13.0064 39.8355 12.9574 39.8108 12.8839C39.8108 12.8349 39.7861 12.8104 39.7614 12.7614C39.7367 12.737 39.7367 12.7125 39.7614 12.688C39.7861 12.688 39.8108 12.688 39.8355 12.737C39.9095 12.8594 40.0082 13.0554 40.0576 13.1534C40.1069 13.2268 40.2304 13.3983 40.2797 13.5208C40.3044 13.5698 40.3044 13.5943 40.3044 13.5943C40.2797 13.6187 40.255 13.5943 40.255 13.5698C40.2304 13.5453 40.2304 13.5208 40.181 13.4718C40.107 13.3983 40.0576 13.3983 39.9342 13.4718C39.8355 13.5208 39.7367 13.5698 39.2678 13.8392L38.7248 14.1576C38.4286 14.3291 38.1818 14.476 38.0584 14.574C37.9844 14.623 37.935 14.6965 37.9844 14.7945C38.009 14.8435 38.0337 14.9169 38.0584 14.9659C38.0831 14.9904 38.0831 15.0149 38.0584 15.0394C38.0337 15.0639 38.009 15.0394 37.9844 14.9904C37.861 14.7945 37.7622 14.5985 37.7129 14.5005C37.6635 14.427 37.5401 14.2311 37.4661 14.1086C37.4414 14.0596 37.4414 14.0351 37.4661 14.0351C37.4907 14.0351 37.4907 14.0351 37.5154 14.0596C37.5401 14.1086 37.5648 14.1331 37.5895 14.1576C37.6388 14.2066 37.7129 14.2066 37.7869 14.1576C37.935 14.1086 38.1818 13.9617 38.478 13.7902L39.0457 13.4718ZM38.7742 15.7497C38.9223 15.3088 39.2678 15.0639 39.5886 14.9414C39.8108 14.8435 40.2304 14.7455 40.6499 14.9659C40.9708 15.1129 41.2423 15.3823 41.4397 15.8722C41.5138 16.0682 41.5631 16.2151 41.6125 16.3621C41.6372 16.4846 41.6619 16.607 41.6865 16.705C41.6865 16.754 41.6865 16.754 41.6619 16.7785C41.6372 16.7785 41.5878 16.803 41.4644 16.8275C41.341 16.8765 41.1682 16.9499 41.0942 16.9744C41.0448 16.9989 41.0202 16.9989 40.9955 16.9744C40.9955 16.9499 41.0202 16.9255 41.0448 16.901C41.1436 16.852 41.2423 16.754 41.2916 16.656C41.3657 16.5091 41.341 16.2151 41.2176 15.8967C41.0942 15.6028 40.9461 15.4558 40.7487 15.3578C40.4278 15.2109 40.0823 15.2843 39.7614 15.4068C38.9716 15.7252 38.8235 16.4846 39.021 16.9255C39.1444 17.2194 39.2431 17.3908 39.4652 17.4643C39.564 17.4888 39.6627 17.4888 39.7367 17.4888C39.7861 17.4888 39.8108 17.4888 39.8108 17.5133C39.8108 17.5378 39.8108 17.5623 39.7614 17.5623C39.7121 17.5868 39.4159 17.6603 39.2925 17.6603C39.2184 17.6603 39.2184 17.6603 39.1691 17.6113C39.0703 17.5133 38.9222 17.2684 38.8482 17.0479C38.7001 16.5825 38.6508 16.1416 38.7742 15.7497ZM41.1436 18.4196C41.6865 18.2971 41.7853 18.2726 41.884 18.2481C42.0074 18.2236 42.0568 18.1747 42.0568 18.0522C42.0568 18.0277 42.0568 17.9542 42.0321 17.9052C42.0321 17.8562 42.0321 17.8562 42.0568 17.8317C42.0814 17.8317 42.1061 17.8562 42.1061 17.9052C42.1308 18.0032 42.1555 18.1012 42.1555 18.1991C42.1802 18.2971 42.1802 18.3706 42.2049 18.4196C42.2295 18.5421 42.3776 19.2279 42.4023 19.3014C42.427 19.3749 42.4517 19.4239 42.4517 19.4484C42.4517 19.4728 42.4763 19.4728 42.4763 19.4973C42.4763 19.5218 42.4763 19.5218 42.4517 19.5218C42.427 19.5218 42.3776 19.5218 42.2049 19.5463C42.1802 19.5463 42.0074 19.5708 41.958 19.5708C41.9334 19.5708 41.9087 19.5708 41.9087 19.5463C41.9087 19.5218 41.9087 19.5218 41.958 19.4973C41.9827 19.4973 42.0321 19.4728 42.0814 19.4484C42.1308 19.3994 42.1802 19.3749 42.1555 19.1789C42.1555 19.1299 42.0814 18.7625 42.0568 18.689C42.0568 18.6645 42.0321 18.6645 42.0074 18.6645L41.1189 18.8605C41.0942 18.8605 41.0695 18.885 41.0942 18.885C41.1189 18.9585 41.1929 19.3504 41.2176 19.4484C41.2423 19.5218 41.267 19.5708 41.3163 19.5953C41.341 19.6198 41.3657 19.6198 41.3657 19.6443C41.3657 19.6688 41.3657 19.6688 41.341 19.6688C41.3163 19.6688 41.267 19.6688 41.0695 19.6933C40.9955 19.7178 40.8474 19.7178 40.8227 19.7423C40.798 19.7423 40.7487 19.7668 40.7487 19.7178C40.7487 19.6933 40.7487 19.6933 40.7733 19.6688C40.798 19.6688 40.8474 19.6443 40.8967 19.6198C40.9708 19.5953 40.9955 19.5218 40.9955 19.3994C40.9955 19.3259 40.9214 18.983 40.8967 18.9095C40.8967 18.885 40.8721 18.885 40.8474 18.885L40.5759 18.9585C40.4525 18.983 40.1316 19.0564 40.0329 19.0809C39.7861 19.1299 39.7614 19.2034 39.8355 19.5708C39.8601 19.6688 39.8848 19.8158 39.9589 19.8892C40.0082 19.9627 40.107 19.9872 40.255 19.9872C40.3044 19.9872 40.3044 19.9872 40.3044 20.0117C40.3044 20.0362 40.2797 20.0362 40.255 20.0607C40.181 20.0852 39.9342 20.1097 39.8601 20.1097C39.7614 20.1097 39.7614 20.0852 39.7367 19.9382C39.6874 19.6688 39.638 19.4728 39.6133 19.3259C39.5886 19.1789 39.564 19.0564 39.5393 18.9585C39.5393 18.9095 39.5146 18.836 39.4899 18.7625C39.4652 18.689 39.4406 18.5911 39.4406 18.5176C39.4406 18.4686 39.4406 18.4441 39.4652 18.4441C39.4899 18.4441 39.4899 18.4441 39.5146 18.4931C39.5146 18.5421 39.5393 18.5911 39.564 18.6156C39.5886 18.689 39.6627 18.689 39.7861 18.6645C39.9342 18.64 40.2057 18.5911 40.5265 18.5176L41.1436 18.4196ZM40.4772 21.4569C40.2057 21.4814 40.1069 21.5304 40.0823 21.6038C40.0576 21.6528 40.0576 21.7263 40.0576 21.7998C40.0576 21.8488 40.0576 21.8488 40.0329 21.8488C40.0082 21.8488 39.9835 21.8243 39.9835 21.7753C39.9835 21.5548 39.9835 21.4079 39.9835 21.3344C39.9835 21.3099 39.9589 21.1384 39.9589 20.9425C39.9589 20.8935 39.9589 20.869 39.9835 20.869C40.0082 20.869 40.0082 20.8935 40.0082 20.918C40.0082 20.967 40.0082 21.0405 40.0329 21.0895C40.0576 21.1874 40.181 21.1874 40.4772 21.1874L42.5998 21.1384C42.6738 21.1384 42.7232 21.1384 42.7232 21.1874C42.7232 21.2364 42.6738 21.2609 42.6244 21.3344C42.5751 21.3834 42.0074 21.9468 41.5138 22.4856C41.267 22.7306 40.7733 23.2449 40.724 23.2939V23.3184L42.3283 23.2204C42.5504 23.2204 42.6244 23.1715 42.6491 23.098C42.6738 23.049 42.6738 22.951 42.6738 22.902C42.6738 22.853 42.6738 22.853 42.6985 22.853C42.7232 22.853 42.7232 22.902 42.7232 22.951C42.7232 23.147 42.7232 23.3184 42.7232 23.3919C42.7232 23.4409 42.7478 23.5634 42.7478 23.7348C42.7478 23.7838 42.7478 23.8083 42.7232 23.8083C42.6985 23.8083 42.6985 23.7838 42.6985 23.7348C42.6985 23.7103 42.6985 23.6613 42.6738 23.6369C42.6491 23.5389 42.5751 23.5144 42.3529 23.5144L40.0823 23.5634C40.0082 23.5634 39.9589 23.5634 39.9589 23.5144C39.9589 23.4654 39.9835 23.4409 40.0329 23.3919C40.2304 23.1715 40.6993 22.6816 41.0448 22.2897C41.4151 21.8978 41.8593 21.4814 41.9087 21.4079L40.4772 21.4569ZM40.0082 24.7636C40.0329 24.7146 40.0576 24.7146 40.1316 24.7146C40.3291 24.7391 40.5512 24.7881 40.6006 24.8126C40.6499 24.8126 40.6993 24.8371 40.6993 24.8616C40.6993 24.8861 40.6746 24.886 40.6253 24.886C40.5759 24.886 40.5019 24.886 40.4278 24.886C40.1563 24.935 40.0329 25.131 39.9835 25.3514C39.9342 25.6699 40.1316 25.8658 40.3291 25.8903C40.5018 25.9148 40.6746 25.8903 40.9461 25.6209L41.0942 25.4739C41.4644 25.131 41.7359 25.033 42.0074 25.082C42.4023 25.131 42.6244 25.4984 42.5504 25.9883C42.5257 26.2087 42.4517 26.3557 42.427 26.4537C42.427 26.4782 42.4023 26.5027 42.3776 26.5027C42.3283 26.5027 42.2295 26.4782 41.958 26.4292C41.884 26.4292 41.8593 26.4047 41.8593 26.3802C41.8593 26.3557 41.884 26.3557 41.9334 26.3557C41.958 26.3557 42.0814 26.3557 42.1802 26.3067C42.2542 26.2577 42.3776 26.1842 42.4023 25.9393C42.4517 25.6699 42.3036 25.4984 42.1061 25.4739C41.9334 25.4494 41.81 25.5229 41.5385 25.7678L41.4397 25.8658C41.0448 26.2577 40.798 26.3557 40.4525 26.3067C40.255 26.2822 40.0082 26.1597 39.8848 25.8903C39.7861 25.6944 39.7861 25.4984 39.8108 25.3025C39.8601 25.0575 39.9095 24.9105 40.0082 24.7636ZM41.0695 27.8009C41.5878 27.9478 41.6865 27.9723 41.81 27.9968C41.9334 28.0213 42.0074 27.9968 42.0321 27.9233C42.0568 27.8988 42.0814 27.8498 42.0814 27.8009C42.0814 27.7764 42.1061 27.7519 42.1308 27.7519C42.1555 27.7519 42.1555 27.7764 42.1308 27.8498C42.0814 27.9723 42.0321 28.1928 41.9827 28.2907C41.958 28.3887 41.9087 28.5847 41.884 28.7071C41.8593 28.7561 41.8593 28.7806 41.8346 28.7806C41.81 28.7806 41.81 28.7561 41.81 28.7071C41.81 28.6826 41.8346 28.6581 41.8346 28.6092C41.8346 28.5112 41.7853 28.4622 41.6619 28.4377C41.5631 28.3887 41.4644 28.3642 40.9214 28.2173L40.3044 28.0458C39.9589 27.9478 39.6874 27.8743 39.5393 27.8498C39.4406 27.8253 39.3665 27.8498 39.3418 27.9478C39.3172 27.9968 39.2925 28.0703 39.2678 28.1193C39.2678 28.1683 39.2431 28.1683 39.2184 28.1683C39.1937 28.1683 39.1937 28.1193 39.1937 28.0948C39.2678 27.8743 39.3418 27.6539 39.3665 27.5559C39.3912 27.4824 39.4406 27.262 39.4899 27.115C39.5146 27.066 39.5146 27.0415 39.5393 27.066C39.564 27.066 39.564 27.0905 39.564 27.1395C39.5393 27.1885 39.5393 27.2375 39.5393 27.262C39.5393 27.3355 39.5886 27.36 39.6874 27.4089C39.8355 27.4579 40.107 27.5314 40.4278 27.6294L41.0695 27.8009ZM38.9469 29.0501C38.9963 29.0011 39.021 29.0011 39.095 29.0256C39.2678 29.099 39.4652 29.197 39.5146 29.2215C39.564 29.246 39.5886 29.2705 39.5886 29.295C39.564 29.3195 39.5393 29.3195 39.5146 29.295C39.4652 29.2705 39.3912 29.2705 39.3418 29.246C39.0703 29.2215 38.8976 29.3685 38.7988 29.5644C38.6754 29.8584 38.7988 30.0788 38.9716 30.1768C39.1444 30.2503 39.3172 30.2748 39.638 30.0788L39.8108 29.9808C40.255 29.7359 40.5265 29.7114 40.798 29.8339C41.1682 29.9808 41.2916 30.3972 41.0942 30.8626C40.9955 31.0831 40.8967 31.2055 40.8474 31.279C40.8227 31.3035 40.8227 31.328 40.798 31.3035C40.7487 31.279 40.6746 31.23 40.4031 31.1321C40.3291 31.1076 40.3044 31.0831 40.3291 31.0586C40.3291 31.0341 40.3538 31.0341 40.4031 31.0586C40.4278 31.0831 40.5512 31.1076 40.6499 31.0586C40.724 31.0341 40.8721 30.9851 40.9708 30.7646C41.0695 30.5197 40.9955 30.3238 40.798 30.2258C40.6499 30.1523 40.5019 30.1768 40.181 30.3727L40.0823 30.4217C39.6133 30.6912 39.3172 30.7402 38.9963 30.5932C38.7988 30.5197 38.6014 30.3482 38.552 30.0298C38.5274 29.8094 38.5767 29.6134 38.6508 29.442C38.7495 29.295 38.8235 29.1725 38.9469 29.0501ZM13.2538 39.8765C13.2291 39.8765 13.2044 39.8765 13.1551 39.852C13.1057 39.8275 13.081 39.803 13.0564 39.6805L12.8836 38.4803C12.8836 38.4313 12.8589 38.4068 12.8342 38.4068C12.8095 38.4068 12.7849 38.4313 12.7602 38.4558L12.2419 39.5091L11.7236 38.4558C11.6989 38.4068 11.6742 38.3823 11.6495 38.3823C11.6248 38.3823 11.6002 38.4068 11.6002 38.4558L11.4027 39.705C11.4027 39.7785 11.378 39.8275 11.3287 39.852C11.304 39.852 11.2793 39.852 11.2793 39.852C11.2546 39.852 11.2299 39.852 11.2299 39.8765C11.2299 39.901 11.2546 39.9255 11.2793 39.9255C11.3534 39.9255 11.4521 39.9255 11.4768 39.9255C11.5014 39.9255 11.6002 39.9255 11.6989 39.9255C11.7236 39.9255 11.7483 39.9255 11.7729 39.8765C11.7729 39.852 11.7483 39.852 11.7236 39.852C11.6989 39.852 11.6989 39.852 11.6495 39.852C11.6248 39.852 11.6002 39.8275 11.6002 39.803C11.6002 39.7785 11.6002 39.754 11.6002 39.705L11.6989 38.9947C11.7729 39.1416 11.8717 39.3376 11.8717 39.3621C11.8963 39.4111 12.0444 39.705 12.0938 39.803C12.1185 39.852 12.1432 39.901 12.1925 39.901C12.2419 39.901 12.2419 39.8765 12.2912 39.7785L12.7108 38.9457L12.8095 39.7295C12.8095 39.754 12.8095 39.754 12.8095 39.7785C12.8095 39.803 12.8095 39.803 12.8095 39.803C12.7849 39.803 12.7849 39.8275 12.7849 39.8275C12.7849 39.852 12.8095 39.8765 12.8589 39.8765C12.9329 39.8765 13.2291 39.901 13.2785 39.901C13.3032 39.901 13.3525 39.901 13.3525 39.852C13.3032 39.8765 13.2785 39.8765 13.2538 39.8765ZM14.9074 38.6763C14.6853 38.4558 14.3398 38.4558 14.093 38.4558C13.9696 38.4558 13.8215 38.4558 13.7721 38.4558C13.7227 38.4558 13.5747 38.4558 13.4759 38.4558C13.4513 38.4558 13.4266 38.4558 13.4019 38.4803C13.4019 38.5048 13.4266 38.5293 13.4513 38.5293C13.4759 38.5293 13.5253 38.5293 13.5253 38.5293C13.5747 38.5538 13.5993 38.5538 13.5993 38.6273C13.5993 38.6763 13.5993 38.7497 13.5993 39.0437V39.3866C13.5993 39.558 13.5993 39.705 13.5993 39.803C13.5993 39.852 13.5747 39.8765 13.55 39.901C13.5253 39.901 13.5006 39.901 13.4759 39.901C13.4513 39.901 13.4266 39.9254 13.4266 39.9499C13.4266 39.9744 13.4513 39.9744 13.4759 39.9744C13.5253 39.9744 13.5747 39.9744 13.624 39.9744C13.6734 39.9744 13.7227 39.9744 13.7474 39.9744C13.7968 39.9744 13.8708 39.9744 13.9449 39.9989C14.0189 39.9989 14.1176 39.9989 14.1917 39.9989C14.5619 39.9989 14.784 39.852 14.8828 39.7785C15.0062 39.656 15.1049 39.4846 15.1049 39.2396C15.1049 38.9457 15.0062 38.7987 14.9074 38.6763ZM14.784 39.2396C14.784 39.4356 14.7347 39.607 14.6113 39.705C14.4879 39.803 14.3645 39.8275 14.1917 39.8275C14.0436 39.8275 13.9696 39.7785 13.9449 39.754C13.9449 39.754 13.9202 39.6805 13.9202 39.6315C13.9202 39.5825 13.9202 39.4356 13.9202 39.2396V38.9947C13.9202 38.8477 13.9202 38.6763 13.9202 38.6273C13.9202 38.6028 13.9202 38.6028 13.9449 38.6028C13.9449 38.6028 14.0189 38.5783 14.0683 38.5783C14.2164 38.5783 14.4385 38.6028 14.6113 38.7497C14.6853 38.8477 14.784 38.9947 14.784 39.2396ZM16.6845 39.558C16.6598 39.558 16.6351 39.5825 16.6351 39.607C16.6351 39.6315 16.6104 39.705 16.5611 39.7295C16.487 39.803 16.3883 39.8275 16.2155 39.8275C15.9441 39.8275 15.5985 39.607 15.5985 39.1661C15.5985 38.9702 15.6232 38.7987 15.7713 38.6763C15.87 38.6028 15.9687 38.5783 16.1415 38.5783C16.3143 38.5783 16.4624 38.6273 16.5117 38.6763C16.5611 38.7252 16.5858 38.7987 16.5858 38.8477C16.5858 38.8722 16.5858 38.8967 16.6351 38.8967C16.6598 38.8967 16.6845 38.8722 16.6845 38.8232C16.6845 38.7742 16.6845 38.6763 16.6845 38.6028C16.6845 38.5293 16.6845 38.5048 16.6845 38.5048C16.6845 38.4803 16.6598 38.4558 16.6351 38.4558C16.5858 38.4558 16.5117 38.4313 16.4377 38.4313C16.339 38.4313 16.2649 38.4068 16.1415 38.4068C15.8453 38.4068 15.6479 38.4803 15.4998 38.6273C15.3023 38.7987 15.253 39.0437 15.253 39.1661C15.253 39.3621 15.3023 39.5825 15.4998 39.754C15.6972 39.901 15.9194 39.9744 16.1909 39.9744C16.3143 39.9744 16.487 39.9744 16.5611 39.9255C16.5858 39.901 16.6104 39.901 16.6104 39.852C16.6351 39.7785 16.6598 39.607 16.6598 39.5825C16.7339 39.5825 16.7092 39.558 16.6845 39.558ZM18.2888 39.558C18.2641 39.558 18.2394 39.5825 18.2394 39.607C18.2394 39.6315 18.2147 39.705 18.1654 39.7295C18.0913 39.803 17.9926 39.8275 17.8198 39.8275C17.5483 39.8275 17.2028 39.607 17.2028 39.1661C17.2028 38.9702 17.2275 38.7987 17.3756 38.6763C17.4743 38.6028 17.573 38.5783 17.7458 38.5783C17.9186 38.5783 18.0666 38.6273 18.116 38.6763C18.1654 38.7252 18.19 38.7987 18.19 38.8477C18.19 38.8722 18.19 38.8967 18.2394 38.8967C18.2641 38.8967 18.2888 38.8722 18.2888 38.8232C18.2888 38.7742 18.2888 38.6763 18.2888 38.6028C18.2888 38.5293 18.2888 38.5048 18.2888 38.5048C18.2888 38.4803 18.2641 38.4558 18.2394 38.4558C18.19 38.4558 18.116 38.4313 18.042 38.4313C17.9432 38.4313 17.8692 38.4068 17.7458 38.4068C17.4496 38.4068 17.2522 38.4803 17.1041 38.6273C16.9066 38.7987 16.8573 39.0437 16.8573 39.1661C16.8573 39.3621 16.9066 39.5825 17.1041 39.754C17.3015 39.901 17.5237 39.9744 17.7951 39.9744C17.9186 39.9744 18.0913 39.9744 18.1654 39.9255C18.19 39.901 18.2147 39.901 18.2147 39.852C18.2394 39.7785 18.2641 39.607 18.2641 39.5825C18.3381 39.5825 18.3381 39.558 18.2888 39.558ZM19.9177 39.558C19.893 39.558 19.8684 39.5825 19.8684 39.607C19.8684 39.6315 19.8437 39.705 19.7943 39.7295C19.7203 39.803 19.6216 39.8275 19.4488 39.8275C19.1773 39.8275 18.8318 39.607 18.8318 39.1661C18.8318 38.9702 18.8564 38.7987 19.0045 38.6763C19.1032 38.6028 19.202 38.5783 19.3747 38.5783C19.5475 38.5783 19.6956 38.6273 19.745 38.6763C19.7943 38.7252 19.819 38.7987 19.819 38.8477C19.819 38.8722 19.819 38.8967 19.8684 38.8967C19.893 38.8967 19.9177 38.8722 19.9177 38.8232C19.9177 38.7742 19.9177 38.6763 19.9177 38.6028C19.9177 38.5293 19.9177 38.5048 19.9177 38.5048C19.9177 38.4803 19.893 38.4558 19.8684 38.4558C19.819 38.4558 19.745 38.4313 19.6709 38.4313C19.5722 38.4313 19.4981 38.4068 19.3747 38.4068C19.0786 38.4068 18.8811 38.4803 18.733 38.6273C18.5356 38.7987 18.4862 39.0437 18.4862 39.1661C18.4862 39.3621 18.5356 39.5825 18.733 39.754C18.9305 39.901 19.1526 39.9744 19.4241 39.9744C19.5475 39.9744 19.7203 39.9744 19.7943 39.9255C19.819 39.901 19.8437 39.901 19.8684 39.852C19.893 39.7785 19.9177 39.607 19.9177 39.5825C19.9424 39.5825 19.9424 39.558 19.9177 39.558ZM27.6923 39.8765C27.6676 39.8765 27.6429 39.8765 27.6183 39.8765C27.5689 39.852 27.5442 39.852 27.5195 39.803C27.4702 39.754 27.1493 39.2396 27.0753 39.1416L27.3961 38.7007C27.4455 38.6273 27.4949 38.5783 27.5195 38.5538C27.5442 38.5538 27.5689 38.5538 27.5936 38.5538C27.6183 38.5538 27.6429 38.5293 27.6429 38.5048C27.6429 38.4803 27.6183 38.4803 27.5936 38.4803C27.5195 38.4803 27.4455 38.4803 27.3961 38.4803C27.3468 38.4803 27.2727 38.4803 27.174 38.4803C27.1493 38.4803 27.1246 38.4803 27.1246 38.5048C27.1246 38.5293 27.1493 38.5538 27.174 38.5538C27.1987 38.5538 27.2234 38.5538 27.2234 38.5538C27.248 38.5538 27.248 38.5783 27.248 38.5783C27.248 38.6028 27.248 38.6273 27.2234 38.6273C27.1987 38.6763 27.0259 38.8967 26.9766 39.0192C26.9025 38.8967 26.8285 38.7742 26.7297 38.6273C26.7297 38.6028 26.7051 38.5783 26.7051 38.5783C26.7051 38.5783 26.7051 38.5783 26.7297 38.5538C26.7544 38.5538 26.7544 38.5538 26.7791 38.5538C26.8038 38.5538 26.8285 38.5538 26.8285 38.5048C26.8285 38.4803 26.8038 38.4803 26.7791 38.4803C26.7051 38.4803 26.5817 38.4803 26.557 38.4803C26.4582 38.4803 26.3102 38.4803 26.2608 38.4803C26.2361 38.4803 26.2114 38.4803 26.2114 38.5048C26.2114 38.5293 26.2361 38.5538 26.2361 38.5538C26.2608 38.5538 26.2855 38.5538 26.3102 38.5783C26.3842 38.6028 26.4089 38.6273 26.4582 38.7252L26.8038 39.2641L26.4089 39.7785C26.3348 39.8765 26.3102 39.901 26.2608 39.9255C26.2361 39.9255 26.2114 39.9255 26.1868 39.9255C26.1621 39.9255 26.1374 39.9499 26.1374 39.9744C26.1374 39.9989 26.1621 39.9989 26.1868 39.9989H26.2114C26.2361 39.9989 26.3348 39.9989 26.3842 39.9989C26.4336 39.9989 26.557 39.9989 26.5817 39.9989H26.6063C26.631 39.9989 26.6557 39.9989 26.6557 39.9744C26.6557 39.9499 26.631 39.9255 26.6063 39.9255C26.5817 39.9255 26.5817 39.9255 26.557 39.9255C26.5323 39.9255 26.5323 39.9255 26.5323 39.901C26.5323 39.8765 26.5323 39.852 26.557 39.8275L26.8285 39.3866C26.9272 39.5335 27.0259 39.705 27.1246 39.8765C27.1246 39.8765 27.1246 39.8765 27.1246 39.901C27.1 39.901 27.0753 39.9254 27.0753 39.9499C27.0753 39.9744 27.1 39.9744 27.174 39.9744C27.3468 39.9744 27.4949 39.9744 27.5442 39.9744H27.5936C27.6183 39.9744 27.6429 39.9744 27.6429 39.9499C27.7417 39.901 27.717 39.8765 27.6923 39.8765ZM29.42 39.8765C29.3953 39.8765 29.3706 39.8765 29.3459 39.8765C29.2966 39.852 29.2719 39.852 29.2472 39.803C29.1979 39.754 28.877 39.2396 28.803 39.1416L29.1238 38.7007C29.1732 38.6273 29.2225 38.5783 29.2719 38.5538C29.2966 38.5538 29.3213 38.5538 29.3459 38.5538C29.3706 38.5538 29.3953 38.5293 29.3953 38.5048C29.3953 38.4803 29.3706 38.4803 29.3459 38.4803C29.2719 38.4803 29.1979 38.4803 29.1485 38.4803C29.0991 38.4803 29.0251 38.4803 28.9264 38.4803C28.9017 38.4803 28.877 38.4803 28.877 38.5048C28.877 38.5293 28.9017 38.5538 28.9264 38.5538C28.951 38.5538 28.9757 38.5538 28.9757 38.5538C29.0004 38.5538 29.0004 38.5783 29.0004 38.5783C29.0004 38.6028 29.0004 38.6273 28.9757 38.6273C28.951 38.6763 28.7783 38.8967 28.7289 39.0192C28.6549 38.8967 28.5808 38.7742 28.4821 38.6273C28.4821 38.6028 28.4574 38.5783 28.4574 38.5783C28.4574 38.5783 28.4574 38.5783 28.4821 38.5538C28.5068 38.5538 28.5068 38.5538 28.5315 38.5538C28.5562 38.5538 28.5808 38.5538 28.5808 38.5048C28.5808 38.4803 28.5562 38.4803 28.5315 38.4803C28.4574 38.4803 28.334 38.4803 28.3093 38.4803C28.2106 38.4803 28.0625 38.4803 28.0132 38.4803C27.9885 38.4803 27.9638 38.4803 27.9638 38.5048C27.9638 38.5293 27.9885 38.5538 27.9885 38.5538C28.0132 38.5538 28.0378 38.5538 28.0625 38.5783C28.1366 38.6028 28.1613 38.6273 28.2106 38.7252L28.5561 39.2641L28.1613 39.7785C28.0872 39.8765 28.0625 39.901 28.0132 39.9255C27.9885 39.9255 27.9638 39.9255 27.9391 39.9255C27.9144 39.9255 27.8898 39.9499 27.8898 39.9744C27.8898 39.9989 27.9144 39.9989 27.9391 39.9989H27.9638C27.9885 39.9989 28.0872 39.9989 28.1366 39.9989C28.1859 39.9989 28.3093 39.9989 28.334 39.9989H28.3587C28.3834 39.9989 28.4081 39.9989 28.4081 39.9744C28.4081 39.9499 28.3834 39.9255 28.3587 39.9255C28.334 39.9255 28.334 39.9255 28.3093 39.9255C28.2847 39.9255 28.2847 39.9255 28.2847 39.901C28.2847 39.8765 28.2847 39.852 28.3093 39.8275L28.5808 39.3866C28.6796 39.5335 28.7783 39.705 28.877 39.8765C28.877 39.8765 28.877 39.8765 28.877 39.901C28.8523 39.901 28.8276 39.9254 28.8276 39.9499C28.8276 39.9744 28.8523 39.9744 28.9264 39.9744C29.0991 39.9744 29.2472 39.9744 29.2966 39.9744H29.3459C29.3706 39.9744 29.3953 39.9744 29.3953 39.9499C29.4447 39.901 29.4447 39.8765 29.42 39.8765ZM31.123 39.8765C31.0983 39.8765 31.0736 39.8765 31.049 39.8765C30.9996 39.852 30.9749 39.852 30.9502 39.803C30.9009 39.754 30.58 39.2396 30.506 39.1416L30.8268 38.7007C30.8762 38.6273 30.9255 38.5783 30.9749 38.5538C30.9996 38.5538 31.0243 38.5538 31.049 38.5538C31.0736 38.5538 31.0983 38.5293 31.0983 38.5048C31.0983 38.4803 31.0736 38.4803 31.049 38.4803C30.9749 38.4803 30.9009 38.4803 30.8515 38.4803C30.8021 38.4803 30.7281 38.4803 30.6294 38.4803C30.6047 38.4803 30.58 38.4803 30.58 38.5048C30.58 38.5293 30.6047 38.5538 30.6294 38.5538C30.6541 38.5538 30.6787 38.5538 30.6787 38.5538C30.7034 38.5538 30.7034 38.5783 30.7034 38.5783C30.7034 38.6028 30.7034 38.6273 30.6787 38.6273C30.6541 38.6763 30.4813 38.8967 30.4319 39.0192C30.3579 38.8967 30.2838 38.7742 30.1851 38.6273C30.1851 38.6028 30.1604 38.5783 30.1604 38.5783C30.1604 38.5783 30.1604 38.5783 30.1851 38.5538C30.2098 38.5293 30.2098 38.5538 30.2345 38.5538C30.2592 38.5538 30.2838 38.5538 30.2838 38.5048C30.2838 38.4803 30.2592 38.4803 30.2345 38.4803C30.1604 38.4803 30.037 38.4803 30.0123 38.4803C29.9136 38.4803 29.7655 38.4803 29.7162 38.4803C29.6915 38.4803 29.6668 38.4803 29.6668 38.5048C29.6668 38.5293 29.6915 38.5538 29.6915 38.5538C29.7162 38.5538 29.7408 38.5538 29.7655 38.5783C29.8396 38.6028 29.8643 38.6273 29.9136 38.7252L30.2592 39.2641L29.8643 39.7785C29.7902 39.8765 29.7655 39.901 29.7162 39.9255C29.6915 39.9255 29.6668 39.9255 29.6421 39.9255C29.6174 39.9255 29.5928 39.9499 29.5928 39.9744C29.5928 39.9989 29.6174 39.9989 29.6421 39.9989H29.6668C29.6915 39.9989 29.7902 39.9989 29.8396 39.9989C29.8889 39.9989 30.0123 39.9989 30.037 39.9989H30.0617C30.0864 39.9989 30.1111 39.9989 30.1111 39.9744C30.1111 39.9499 30.0864 39.9255 30.0617 39.9255C30.037 39.9255 30.037 39.9255 30.0123 39.9255C29.9877 39.9255 29.9877 39.9255 29.9877 39.901C29.9877 39.8765 29.9877 39.852 30.0123 39.8275L30.2838 39.3866C30.3826 39.5335 30.4813 39.705 30.58 39.8765C30.58 39.8765 30.58 39.8765 30.58 39.901C30.5553 39.901 30.5306 39.9254 30.5306 39.9499C30.5306 39.9744 30.5553 39.9744 30.6294 39.9744C30.8021 39.9744 30.9502 39.9744 30.9996 39.9744H31.049C31.0736 39.9744 31.0983 39.9744 31.0983 39.9499C31.1724 39.901 31.1477 39.8765 31.123 39.8765ZM32.1843 39.8765C32.1596 39.8765 32.1102 39.8765 32.0856 39.8765C32.0362 39.8765 32.0362 39.852 32.0115 39.803C32.0115 39.7295 32.0115 39.558 32.0115 39.3866V39.0437C32.0115 38.7497 32.0115 38.7007 32.0115 38.6273C32.0115 38.5538 32.0362 38.5538 32.0609 38.5293C32.0856 38.5293 32.1102 38.5293 32.1102 38.5293C32.1349 38.5293 32.1596 38.5293 32.1596 38.4803C32.1596 38.4558 32.1349 38.4558 32.1102 38.4558C32.0362 38.4558 31.9128 38.4558 31.8634 38.4558C31.8141 38.4558 31.666 38.4558 31.5919 38.4558C31.5673 38.4558 31.5426 38.4558 31.5179 38.4803C31.5179 38.5048 31.5426 38.5293 31.5673 38.5293C31.5919 38.5293 31.6166 38.5293 31.6413 38.5293C31.6907 38.5538 31.6907 38.5538 31.6907 38.6273C31.6907 38.6763 31.6907 38.7497 31.6907 39.0437V39.3866C31.6907 39.5825 31.6907 39.7295 31.6907 39.803C31.6907 39.852 31.666 39.8765 31.6413 39.8765C31.6166 39.8765 31.5919 39.8765 31.5673 39.8765C31.5426 39.8765 31.5179 39.901 31.5179 39.9255C31.5179 39.95 31.5426 39.9499 31.5673 39.9499C31.6413 39.9499 31.7894 39.9499 31.8387 39.9499C31.8881 39.9499 32.0362 39.9499 32.1596 39.9499C32.1843 39.9499 32.209 39.95 32.209 39.9255C32.2336 39.901 32.209 39.8765 32.1843 39.8765ZM33.3937 39.8765C33.369 39.8765 33.3196 39.8765 33.2949 39.8765C33.2456 39.8765 33.2456 39.852 33.2209 39.803C33.2209 39.7295 33.2209 39.558 33.2209 39.3866V39.0437C33.2209 38.7497 33.2209 38.7007 33.2209 38.6273C33.2209 38.5538 33.2456 38.5538 33.2703 38.5293C33.2949 38.5293 33.3196 38.5293 33.3196 38.5293C33.3443 38.5293 33.369 38.5293 33.369 38.4803C33.369 38.4558 33.3443 38.4558 33.3196 38.4558C33.2456 38.4558 33.0975 38.4558 33.0481 38.4558C32.9988 38.4558 32.8507 38.4558 32.7766 38.4558C32.752 38.4558 32.7273 38.4558 32.7026 38.4803C32.7026 38.5048 32.7273 38.5293 32.752 38.5293C32.7766 38.5293 32.8013 38.5293 32.826 38.5293C32.8754 38.5538 32.8754 38.5538 32.8754 38.6273C32.8754 38.6763 32.8754 38.7497 32.8754 39.0437V39.3866C32.8754 39.5825 32.8754 39.7295 32.8754 39.803C32.8754 39.852 32.8507 39.8765 32.826 39.8765C32.8013 39.8765 32.7766 39.8765 32.752 39.8765C32.7273 39.8765 32.7026 39.901 32.7026 39.9255C32.7026 39.95 32.7273 39.9499 32.752 39.9499C32.826 39.9499 32.9741 39.9499 33.0234 39.9499C33.0728 39.9499 33.2209 39.9499 33.3443 39.9499C33.369 39.9499 33.3937 39.95 33.3937 39.9255C33.443 39.901 33.4183 39.8765 33.3937 39.8765ZM34.6277 39.8765C34.603 39.8765 34.5537 39.8765 34.529 39.8765C34.4796 39.8765 34.4796 39.852 34.455 39.803C34.455 39.7295 34.455 39.558 34.455 39.3866V39.0437C34.455 38.7497 34.455 38.7007 34.455 38.6273C34.455 38.5538 34.4796 38.5538 34.5043 38.5293C34.529 38.5293 34.5537 38.5293 34.5537 38.5293C34.5784 38.5293 34.603 38.5293 34.603 38.4803C34.603 38.4558 34.5784 38.4558 34.5537 38.4558C34.4796 38.4558 34.3562 38.4558 34.3069 38.4558C34.2575 38.4558 34.1094 38.4558 34.0354 38.4558C34.0107 38.4558 33.986 38.4558 33.9613 38.4803C33.9613 38.5048 33.986 38.5293 34.0107 38.5293C34.0354 38.5293 34.0601 38.5293 34.0847 38.5293C34.1341 38.5538 34.1341 38.5538 34.1341 38.6273C34.1341 38.6763 34.1341 38.7497 34.1341 39.0437V39.3866C34.1341 39.5825 34.1341 39.7295 34.1341 39.803C34.1341 39.852 34.1094 39.8765 34.0847 39.8765C34.0601 39.8765 34.0354 39.8765 34.0107 39.8765C33.986 39.8765 33.9613 39.901 33.9613 39.9255C33.9613 39.95 33.986 39.9499 34.0107 39.9499C34.0847 39.9499 34.2328 39.9499 34.2822 39.9499C34.3315 39.9499 34.4796 39.9499 34.603 39.9499C34.6277 39.9499 34.6524 39.95 34.6524 39.9255C34.6771 39.901 34.6524 39.8765 34.6277 39.8765ZM22.5093 30.5197V29.393C22.5093 29.1725 22.3365 29.0011 22.1144 29.0011C21.8922 29.0011 21.7195 29.1725 21.7195 29.393V30.5197H22.5093ZM24.6072 30.5197V29.393C24.6072 29.1725 24.4344 29.0011 24.2123 29.0011C23.9901 29.0011 23.8174 29.1725 23.8174 29.393V30.5197H24.6072ZM23.1756 7.71566C22.9535 7.71566 22.7807 7.88711 22.7807 8.10756C22.7807 8.32801 22.9535 8.49947 23.1756 8.49947C23.3978 8.49947 23.5705 8.32801 23.5705 8.10756C23.5705 7.88711 23.3978 7.71566 23.1756 7.71566ZM22.9535 18.9585H23.3731V18.0767H22.9535V18.9585ZM19.0786 41.0032C18.8564 41.0032 18.6837 41.1747 18.6837 41.3951C18.6837 41.6156 18.8564 41.787 19.0786 41.787C19.3007 41.787 19.4735 41.6156 19.4735 41.3951C19.4735 41.1747 19.3007 41.0032 19.0786 41.0032ZM18.8318 18.9585V17.6848C18.8318 17.3908 18.6837 17.1704 18.4615 17.0724C18.2394 17.1704 18.0913 17.3663 18.0913 17.6848V18.9585H18.8318ZM18.8318 14.8434V14.0106C18.8318 13.7167 18.6837 13.4963 18.4615 13.3983C18.2394 13.4963 18.0913 13.7167 18.0913 14.0106V14.8434H18.8318ZM18.659 23.4164V22.3387C18.659 22.2162 18.5603 22.1427 18.4615 22.1427C18.3628 22.1427 18.2641 22.2407 18.2641 22.3387V23.4164H18.659ZM18.659 26.6741V25.5964C18.659 25.4739 18.5603 25.4004 18.4615 25.4004C18.3628 25.4004 18.2641 25.4984 18.2641 25.5964V26.6741H18.659ZM18.7824 30.2748V29.3195C18.7824 29.148 18.6343 29.0011 18.4615 29.0011C18.2888 29.0011 18.1407 29.148 18.1407 29.3195V30.2748H18.7824ZM18.4615 3.25772C18.2394 3.25772 18.0666 3.42918 18.0666 3.64963C18.0666 3.87008 18.2394 4.04153 18.4615 4.04153C18.6837 4.04153 18.8564 3.87008 18.8564 3.64963C18.8564 3.42918 18.6837 3.25772 18.4615 3.25772ZM28.26 18.9585V17.6848C28.26 17.3908 28.1119 17.1704 27.8898 17.0724C27.6676 17.1704 27.5195 17.3663 27.5195 17.6848V18.9585H28.26ZM28.26 14.8434V14.0106C28.26 13.7167 28.1119 13.4963 27.8898 13.3983C27.6676 13.4963 27.5195 13.7167 27.5195 14.0106V14.8434H28.26ZM28.0872 23.4164V22.3387C28.0872 22.2162 27.9885 22.1427 27.8898 22.1427C27.791 22.1427 27.6923 22.2407 27.6923 22.3387V23.4164H28.0872ZM28.0872 26.6741V25.5964C28.0872 25.4739 27.9885 25.4004 27.8898 25.4004C27.791 25.4004 27.6923 25.4984 27.6923 25.5964V26.6741H28.0872ZM28.1859 30.2748V29.3195C28.1859 29.148 28.0378 29.0011 27.8651 29.0011C27.6923 29.0011 27.5442 29.148 27.5442 29.3195V30.2748H28.1859ZM27.8651 3.25772C27.6429 3.25772 27.4702 3.42918 27.4702 3.64963C27.4702 3.87008 27.6429 4.04153 27.8651 4.04153C28.0872 4.04153 28.26 3.87008 28.26 3.64963C28.2847 3.42918 28.1119 3.25772 27.8651 3.25772ZM0 23C0 10.2875 10.3661 0 23.1756 0C35.9852 0 46.3513 10.2875 46.3513 23C46.3513 35.7125 35.9852 46 23.1756 46C10.3661 46 0 35.7125 0 23ZM7.18223 7.12779C3.08515 11.1938 0.567667 16.803 0.567667 23C0.567667 29.197 3.08515 34.8062 7.18223 38.8722C11.2793 42.9382 16.9313 45.4366 23.1756 45.4366C29.42 45.4366 35.072 42.9382 39.1691 38.8722C43.2661 34.8062 45.7836 29.197 45.7836 23C45.7836 16.803 43.2661 11.1938 39.1691 7.12779C35.072 3.06177 29.42 0.563366 23.1756 0.563366C16.9313 0.563366 11.2793 3.06177 7.18223 7.12779ZM23.5212 37.4515H23.7186V37.1331H23.2744V37.8435H23.5459L23.5212 37.4515ZM23.1756 1.49414C11.2053 1.49414 1.50555 11.1203 1.50555 23C1.50555 34.8797 11.2053 44.5059 23.1756 44.5059C35.146 44.5059 44.8457 34.8797 44.8457 23C44.8211 11.1203 35.1213 1.49414 23.1756 1.49414ZM20.7816 41.2236H19.7943V41.5421H20.7816V43.967C15.87 43.4281 11.4521 41.1992 8.1448 37.9169C7.67585 37.4515 7.20691 36.9372 6.78733 36.4228C6.88605 35.9084 7.33032 35.492 7.8733 35.492C8.49033 35.492 8.98396 35.9819 8.98396 36.5942V37.6475H10.3908V36.5942C10.3908 35.9819 10.8844 35.492 11.5014 35.492C12.1185 35.492 12.6121 35.9819 12.6121 36.5942V37.6475H14.0189V36.5942C14.0189 35.9819 14.5125 35.492 15.1296 35.492C15.7466 35.492 16.2402 35.9819 16.2402 36.5942V37.6475H17.6471V36.5942C17.6471 35.9819 18.1407 35.492 18.7577 35.492C19.3747 35.492 19.8684 35.9819 19.8684 36.5942V37.6475H20.7569L20.7816 41.2236ZM24.8046 44.0405C24.2616 44.0895 23.7186 44.1139 23.1756 44.1139C22.6327 44.1139 22.0897 44.0895 21.5467 44.065L21.1518 41.5666H21.6207C21.4973 41.2971 21.2999 40.8072 21.2258 40.6113C21.1024 40.2929 21.2012 40.0969 21.3986 40.0234C21.596 39.9499 21.8429 40.0479 21.8922 40.3174L22.0897 41.0767H22.3858V41.5666V41.6645H21.6948V41.983H22.7314V41.5666H23.9654V41.0767H24.2616L24.4591 40.3174C24.5331 40.0479 24.7552 39.9499 24.9774 40.0234C25.1748 40.0969 25.2735 40.3174 25.1501 40.6113C25.1255 40.6848 25.0514 40.8317 25.0021 40.9787L24.7306 41.64H23.9901V41.9585H24.9527L25.1255 41.5421H25.2242L24.8046 44.0405ZM22.4846 36.9372H23.842C23.8914 37.0596 24.0148 37.3781 24.1135 37.5495C24.1629 37.672 24.2369 37.819 24.1629 37.9414C24.0642 38.1129 23.9161 38.0884 23.842 38.0639C23.842 38.0639 23.842 38.0639 23.8174 38.0639C23.7186 38.3088 23.4718 38.5048 23.2003 38.5048C22.9042 38.5048 22.6573 38.3333 22.5833 38.0639C22.5833 38.0639 22.5833 38.0639 22.5586 38.0639C22.4599 38.0639 22.3365 38.0884 22.2378 37.9414C22.1637 37.7945 22.2131 37.672 22.2871 37.5495C22.3118 37.3536 22.4352 37.0596 22.4846 36.9372ZM22.2871 35.541L22.7067 36.1534L23.151 35.3206L23.5952 36.1534L24.0148 35.541L23.842 36.5942H22.4599L22.2871 35.541ZM22.8054 38.5538C22.9042 38.8232 23.1756 39.0437 23.4965 39.0437C23.842 39.0437 24.1382 38.7987 24.2123 38.4803C24.4344 38.4803 24.6318 38.5538 24.854 38.7252C25.0514 38.8967 25.1255 39.1906 25.1748 39.3376H21.2258C21.2505 39.1906 21.3246 38.8967 21.5467 38.7252C21.9416 38.3578 22.3858 38.4803 22.8054 38.5538ZM24.4344 39.656C24.2863 40.2194 23.768 40.6358 23.151 40.6358C22.5339 40.6358 22.0403 40.2194 21.8675 39.656H24.4344ZM38.2065 37.9169C34.8992 41.1992 30.4813 43.4281 25.5697 43.967V41.5421H26.4582C28.1366 41.5421 29.3213 41.3951 29.3213 41.3951C29.3213 41.3951 28.0872 41.1991 26.4582 41.1991H25.5697V37.672H26.6557V36.6187C26.6557 36.0064 27.1493 35.5165 27.7663 35.5165C28.3834 35.5165 28.877 36.0064 28.877 36.6187V37.672H30.2838V36.6187C30.2838 36.0064 30.7775 35.5165 31.3945 35.5165C32.0115 35.5165 32.5051 36.0064 32.5051 36.6187V37.672H33.912V36.6187C33.912 36.0064 34.4056 35.5165 35.0226 35.5165C35.6397 35.5165 36.1333 36.0064 36.1333 36.6187V37.672H37.5401V36.6187C37.5401 36.0064 38.0337 35.5165 38.6508 35.5165C39.1444 35.5165 39.5393 35.8349 39.712 36.2513C39.2431 36.8392 38.7495 37.4026 38.2065 37.9169ZM39.9589 35.9574C39.7121 35.443 39.1691 35.0756 38.5767 35.0756C37.7376 35.0756 37.0465 35.7614 37.0465 36.5942V37.0841H36.4788V36.5942C36.4788 35.7614 35.7877 35.0756 34.9486 35.0756C34.1094 35.0756 33.4183 35.7614 33.4183 36.5942V37.0841H32.826V36.5942C32.826 35.7614 32.1349 35.0756 31.2958 35.0756C30.4566 35.0756 29.7655 35.7614 29.7655 36.5942V37.0841H29.1979V36.5942C29.1979 35.7614 28.5068 35.0756 27.6676 35.0756C26.8285 35.0756 26.1374 35.7614 26.1374 36.5942V37.0841H25.5697C25.397 35.9329 24.4097 35.0511 23.2003 35.0511C21.9909 35.0511 21.0037 35.9329 20.8309 37.0841H20.2386V36.5942C20.2386 35.7614 19.5475 35.0756 18.7084 35.0756C17.8692 35.0756 17.1781 35.7614 17.1781 36.5942V37.0841H16.6104V36.5942C16.6104 35.7614 15.9194 35.0756 15.0802 35.0756C14.2411 35.0756 13.55 35.7614 13.55 36.5942V37.0841H12.9823V36.5942C12.9823 35.7614 12.2912 35.0756 11.4521 35.0756C10.6129 35.0756 9.92184 35.7614 9.92184 36.5942V37.0841H9.37886V36.5942C9.37886 35.7614 8.68778 35.0756 7.84862 35.0756C7.23159 35.0756 6.71329 35.4185 6.46647 35.9329C6.09626 35.443 5.72604 34.9531 5.40518 34.4388H41.1189C40.6993 34.9776 40.3291 35.492 39.9589 35.9574ZM41.3904 33.8999H4.96092C4.8622 33.7284 4.76347 33.557 4.64007 33.361H41.6865C41.5878 33.557 41.4891 33.7284 41.3904 33.8999ZM19.4981 6.76039V6.93184C19.4981 6.95634 19.4735 7.02982 19.4735 7.07881C19.4488 7.15229 19.3747 7.29926 19.276 7.44622C19.2267 7.49521 19.1773 7.61768 19.1032 7.76464C19.0045 7.61768 18.9305 7.51971 18.8564 7.47072C18.7824 7.39723 18.7083 7.32375 18.6343 7.22578C18.4862 7.05432 18.4862 6.93184 18.4862 6.93184C18.4862 6.93184 18.4862 7.02982 18.3381 7.22578C18.2641 7.29926 18.19 7.39723 18.116 7.47072C18.0666 7.51971 17.9679 7.64217 17.8692 7.78914C17.7951 7.64217 17.7211 7.51971 17.6964 7.47072C17.5977 7.32375 17.5237 7.17679 17.499 7.10331C17.4743 7.02982 17.4496 6.93184 17.4496 6.93184V6.78488H19.4981V6.76039ZM17.4249 6.44196C17.4496 6.17252 17.5237 5.68264 17.7705 5.33972C17.9679 5.07029 18.1654 4.92332 18.3134 4.82535C18.3875 4.77636 18.4369 4.75186 18.4615 4.72737C18.5109 4.75186 18.5603 4.77636 18.6096 4.82535C18.7577 4.92332 18.9552 5.07029 19.1526 5.33972C19.4241 5.68264 19.4735 6.19702 19.4981 6.44196H17.4249ZM19.5722 7.61768C19.6216 7.69116 19.6956 7.81364 19.7696 7.9606C19.8684 8.18105 19.893 8.4015 19.893 8.57295V10.9489H19.2513C19.2513 10.4345 19.2513 9.28328 19.2513 8.57295C19.2513 8.4015 19.276 8.18105 19.3747 7.9606C19.4488 7.78914 19.5228 7.69116 19.5722 7.61768ZM18.9305 8.57295V10.9489H17.9926C17.9926 10.2875 17.9926 8.57295 17.9926 8.57295C17.9926 8.42599 18.0173 8.20554 18.116 7.98509C18.2394 7.76464 18.4615 7.61768 18.4615 7.61768C18.4615 7.61768 18.6837 7.76464 18.7824 7.98509C18.9058 8.23003 18.9305 8.42599 18.9305 8.57295ZM17.5483 7.9606C17.6471 8.18105 17.6471 8.4015 17.6471 8.57295V10.9489H17.03V8.57295C17.03 8.4015 17.0547 8.20554 17.1534 7.9606C17.2275 7.81364 17.2768 7.69116 17.3509 7.61768C17.4002 7.71565 17.4743 7.81364 17.5483 7.9606ZM20.362 11.3408V12.1001H16.5611V11.3408H20.362ZM20.362 12.4185V15.4068H19.4488V14.0596C19.4488 13.6187 19.276 13.2268 19.0045 12.9819C18.8564 12.8349 18.6837 12.737 18.4862 12.6635C18.4615 12.6635 18.4615 12.6635 18.4615 12.6635C18.4615 12.6635 18.4615 12.6635 18.4369 12.6635C18.2394 12.737 18.0666 12.8349 17.9186 12.9819C17.6471 13.2513 17.4743 13.6187 17.4743 14.0596V15.4068H16.5611V12.4185H20.362ZM19.1032 14.0841V15.4313H17.7951V14.0841C17.7951 13.5698 18.0666 13.2023 18.4369 13.0309C18.8318 13.2023 19.1032 13.5453 19.1032 14.0841ZM20.362 15.7497V19.5708H19.4981V17.6603C19.4981 17.2194 19.3254 16.8275 19.0539 16.558C18.9058 16.4111 18.733 16.3131 18.5356 16.2396L18.4615 16.2151C18.4615 16.2151 18.4122 16.2396 18.3875 16.2396C18.19 16.3131 18.0173 16.4111 17.8445 16.558C17.573 16.8275 17.4002 17.2194 17.4002 17.6603V19.5708H16.5611V15.7497H20.362ZM19.1773 17.6603V19.5708H17.7211V17.6603C17.7211 17.2929 17.8692 16.9989 18.0666 16.803C18.1654 16.705 18.2888 16.6315 18.4369 16.5825C18.5849 16.6315 18.7083 16.705 18.8071 16.803C19.0539 16.9989 19.1773 17.2929 19.1773 17.6603ZM20.362 19.8892V24.4207H16.5611V19.8892H20.362ZM20.362 24.7636V27.7274H16.5611V24.7636H20.362ZM20.362 28.0458V33.0671H16.5611V28.0458H20.362ZM23.694 15.7742V17.1214L23.1756 16.607L22.6573 17.1214V15.7742H23.694ZM22.6573 15.4068L23.0276 13.7902L23.1756 11.0714L23.2744 13.7657L23.6446 15.3823H22.6573V15.4068ZM23.1756 17.1704L25.5944 19.5708H20.7569L23.1756 17.1704ZM25.5944 19.8892V21.7263H20.7322V19.8892H25.5944ZM25.5944 22.2897V24.4207H24.0889V23.8818C24.0889 23.3919 23.694 22.9755 23.1756 22.9755C22.682 22.9755 22.2624 23.3674 22.2624 23.8818V24.4207H20.7322V22.2897H25.5944ZM22.2624 24.7636V26.6741H24.0642V24.7636H25.5697V27.7274H20.7322V24.7636H22.2624ZM25.5944 28.0458V33.0671H20.7322V28.0458H25.5944ZM28.9264 6.76039V6.93184C28.9264 6.95634 28.9017 7.02982 28.9017 7.07881C28.877 7.15229 28.803 7.29926 28.7042 7.44622C28.6549 7.49521 28.6055 7.61768 28.5315 7.76464C28.4327 7.61768 28.3587 7.51971 28.2847 7.47072C28.2106 7.39723 28.1366 7.32375 28.0625 7.22578C27.9144 7.05432 27.9144 6.93184 27.9144 6.93184C27.9144 6.93184 27.9144 7.02982 27.7663 7.22578C27.6923 7.29926 27.6183 7.39723 27.5442 7.47072C27.4949 7.51971 27.3961 7.64217 27.2974 7.78914C27.2234 7.64217 27.1493 7.51971 27.1246 7.47072C27.0259 7.32375 26.9519 7.17679 26.9272 7.10331C26.9025 7.02982 26.8778 6.93184 26.8778 6.93184V6.80937H28.9264V6.76039ZM26.8285 6.44196C26.8531 6.17252 26.9272 5.68264 27.174 5.33972C27.3715 5.07029 27.5689 4.92332 27.717 4.82535C27.791 4.77636 27.8404 4.75186 27.8651 4.72737C27.9144 4.75186 27.9638 4.77636 28.0132 4.82535C28.1612 4.92332 28.3587 5.07029 28.5561 5.33972C28.8276 5.68264 28.877 6.19702 28.9017 6.44196H26.8285ZM29.0004 7.61768C29.0498 7.69116 29.1238 7.81364 29.1979 7.9606C29.2966 8.18105 29.3213 8.4015 29.3213 8.57295V10.9489H28.7042C28.7042 10.4345 28.7042 9.28328 28.7042 8.57295C28.7042 8.4015 28.7289 8.18105 28.8276 7.9606C28.877 7.78914 28.9264 7.69116 29.0004 7.61768ZM28.3587 8.57295V10.9489H27.4208C27.4208 10.2875 27.4208 8.57295 27.4208 8.57295C27.4208 8.42599 27.4455 8.20554 27.5442 7.98509C27.6676 7.76464 27.8898 7.61768 27.8898 7.61768C27.8898 7.61768 28.1119 7.76464 28.2106 7.98509C28.334 8.23003 28.334 8.42599 28.3587 8.57295ZM26.9519 7.9606C27.0506 8.18105 27.0506 8.4015 27.0506 8.57295V10.9489H26.4336V8.57295C26.4336 8.4015 26.4582 8.20554 26.557 7.9606C26.631 7.81364 26.6804 7.69116 26.7544 7.61768C26.8285 7.71565 26.9025 7.81364 26.9519 7.9606ZM29.7655 11.3408V12.1001H25.9646V11.3408H29.7655ZM29.7655 12.4185V15.4068H28.8523V14.0596C28.8523 13.6187 28.6796 13.2268 28.4081 12.9819C28.26 12.8349 28.0872 12.737 27.8898 12.6635C27.8651 12.6635 27.8651 12.6635 27.8651 12.6635C27.8651 12.6635 27.8651 12.6635 27.8404 12.6635C27.6429 12.737 27.4702 12.8349 27.3221 12.9819C27.0506 13.2513 26.8778 13.6187 26.8778 14.0596V15.4068H25.9646V12.4185H29.7655ZM28.5315 14.0841V15.4313H27.2234V14.0841C27.2234 13.5698 27.4949 13.2023 27.8651 13.0309C28.26 13.2023 28.5315 13.5453 28.5315 14.0841ZM29.7655 15.7497V19.5708H28.9264V17.6603C28.9264 17.2194 28.7536 16.8275 28.4821 16.558C28.334 16.4111 28.1613 16.3131 27.9638 16.2396L27.8898 16.2151C27.8898 16.2151 27.8404 16.2396 27.8157 16.2396C27.6183 16.3131 27.4455 16.4111 27.2727 16.558C27.0012 16.8275 26.8285 17.2194 26.8285 17.6603V19.5708H25.9893V15.7497H29.7655ZM28.6055 17.6603V19.5708H27.1493V17.6603C27.1493 17.2929 27.2974 16.9989 27.4949 16.803C27.5936 16.705 27.717 16.6315 27.8651 16.5825C28.0132 16.6315 28.1366 16.705 28.2353 16.803C28.4574 16.9989 28.6055 17.2929 28.6055 17.6603ZM29.7655 19.8892V24.4207H25.9646V19.8892C25.9893 19.8892 29.7655 19.8892 29.7655 19.8892ZM29.7655 24.7636V27.7274H25.9646V24.7636H29.7655ZM29.7655 28.0458V33.0671H25.9646V28.0458C25.9893 28.0458 29.7655 28.0458 29.7655 28.0458ZM30.3579 33.0426V10.9244H29.8889V8.49947C29.8889 8.20554 29.8396 8.00959 29.7162 7.69116C29.6915 7.61768 29.6421 7.5197 29.5681 7.44622V6.56443C29.5681 6.56443 29.5681 5.8786 29.2719 5.33972C28.951 4.77636 28.3587 4.45793 28.0625 4.33546C27.9885 4.31097 27.9391 4.28648 27.9391 4.28648L27.8898 4.26198L27.8404 4.28648C27.8157 4.28648 27.3221 4.45793 26.8778 5.07029C26.4582 5.63365 26.4582 6.36848 26.4336 6.56443C26.4336 6.58893 26.4336 6.61342 26.4336 6.61342V7.42173C26.3842 7.49521 26.3102 7.61768 26.2114 7.81363C26.088 8.13206 26.0633 8.4015 26.0633 8.57295V10.9244H25.5944V18.983L24.2863 17.6848V15.3823L23.842 13.8882L23.2003 8.7934L22.7067 13.6677L22.2624 15.3578V17.4888L20.9543 18.787V10.8999H20.4854V8.47497C20.4854 8.18104 20.436 7.98509 20.3126 7.66667C20.2879 7.59319 20.2386 7.49521 20.1645 7.42173V6.56443C20.1645 6.56443 20.1645 5.8786 19.8684 5.33972C19.5475 4.77636 18.9552 4.45793 18.659 4.33546C18.5849 4.31097 18.5356 4.28648 18.5356 4.28648L18.4862 4.26198L18.4369 4.28648C18.4122 4.28648 17.9186 4.45793 17.4743 5.07029C17.0547 5.63365 17.0547 6.36848 17.03 6.56443C17.03 6.58893 17.03 6.61342 17.03 6.61342V7.42173C16.9807 7.49521 16.9066 7.61768 16.8079 7.81363C16.6845 8.13206 16.6598 8.4015 16.6598 8.57295V10.9244H16.1909V33.0181H4.4673C2.83834 30.0298 1.90045 26.6006 1.90045 22.951C1.90045 17.1214 4.29453 11.8307 8.1448 8.00958C11.9951 4.1885 17.3015 1.81257 23.2003 1.81257C29.0991 1.81257 34.4056 4.1885 38.2559 8.00958C42.1061 11.8307 44.5002 17.1214 44.5002 22.951C44.5002 26.6006 43.5623 30.0298 41.9334 33.0181L30.3579 33.0426Z" fill="black"/>
</svg>
